<svg width="251" height="200" viewBox="0 0 251 200" fill="none" xmlns="http://www.w3.org/2000/svg">
<path d="M120.504 133C139.005 133 154.004 118.002 154.004 99.5C154.004 80.9985 139.005 66 120.504 66C102.002 66 87.0038 80.9985 87.0038 99.5C87.0038 118.002 102.002 133 120.504 133Z" fill="#F3F7FF" stroke="#1F64E7" stroke-width="2.5"/>
<path fill-rule="evenodd" clip-rule="evenodd" d="M115.136 125.494C116.895 125.819 118.684 125.987 120.504 126C135.139 126 147.004 114.136 147.004 99.5C147.004 84.8645 135.139 73 120.504 73C116.744 73 113.167 73.7829 109.928 75.1946C104.298 77.6479 99.6854 81.9999 96.8998 87.4419C95.0483 91.0589 94.0038 95.1575 94.0038 99.5C94.0038 103.44 94.8636 107.179 96.4059 110.54C97.507 112.94 98.9559 115.146 100.688 117.096" fill="white"/>
<path d="M115.136 125.494C116.895 125.819 118.684 125.987 120.504 126C135.139 126 147.004 114.136 147.004 99.5C147.004 84.8645 135.139 73 120.504 73C116.744 73 113.167 73.7829 109.928 75.1946C104.298 77.6479 99.6854 81.9999 96.8998 87.4419C95.0483 91.0589 94.0038 95.1575 94.0038 99.5C94.0038 103.44 94.8636 107.179 96.4059 110.54C97.507 112.94 98.9559 115.146 100.688 117.096" stroke="#1F64E7" stroke-width="2.5" stroke-linecap="round"/>
<path d="M103.801 120.075C105.949 121.821 108.376 123.237 111.005 124.247" stroke="#1F64E7" stroke-width="2.5" stroke-linecap="round"/>
<path d="M148.004 126L154.004 132" stroke="#1F64E7" stroke-width="2.5"/>
<path fill-rule="evenodd" clip-rule="evenodd" d="M153.034 131.03C151.141 132.923 151.141 135.992 153.034 137.884L164.119 148.97C166.012 150.862 169.081 150.862 170.973 148.97C172.866 147.077 172.866 144.008 170.973 142.116L159.888 131.03C157.995 129.138 154.927 129.138 153.034 131.03Z" fill="#E8F0FE" stroke="#1F64E7" stroke-width="2.5"/>
<path d="M158.004 133L169.004 144" stroke="white" stroke-width="2.5" stroke-linecap="round"/>
<path fill-rule="evenodd" clip-rule="evenodd" d="M114.004 88C114.004 99.598 123.406 109 135.004 109C137.282 109 139.476 108.637 141.53 107.966C138.177 116.287 130.026 122.161 120.504 122.161C107.989 122.161 97.8431 112.015 97.8431 99.5C97.8431 88.1596 106.174 78.7648 117.049 77.1011C115.117 80.2793 114.004 84.0097 114.004 88Z" fill="#E8F0FE"/>
<path d="M121.004 81C119.73 81 118.486 81.1253 117.283 81.3642M113.649 82.4761C106.808 85.3508 102.004 92.1144 102.004 100" stroke="#75A4FE" stroke-width="2.5" stroke-linecap="round"/>
<path d="M174.18 99.7773H166.004M180.504 92H163.328H180.504ZM187.504 92H185.283H187.504Z" stroke="#75A4FE" stroke-width="2.5" stroke-linecap="round" stroke-linejoin="round"/>
<path d="M84.1796 121.777H76.0038M79.5038 113H62.328H79.5038ZM56.5038 113H52.2826H56.5038Z" stroke="#75A4FE" stroke-width="2.5" stroke-linecap="round" stroke-linejoin="round"/>
</svg>
