<svg width="151" height="150" viewBox="0 0 151 150" fill="none" xmlns="http://www.w3.org/2000/svg">
<path d="M133.004 126.523C135.332 124.123 133.083 120.313 129.747 120.571C127.724 120.727 125.679 120.807 123.615 120.807C80.2914 120.807 45.1703 85.7137 45.1703 42.4238C45.1703 29.1092 48.4927 16.5699 54.3543 5.58864C55.9311 2.6348 53.3324 -0.953122 50.1991 0.232488C20.9929 11.2837 0.224976 39.5288 0.224976 72.6284C0.224976 115.36 34.8377 150 77.5347 150C99.2946 150 118.955 141.003 133.004 126.523Z" fill="#2C2C2C" fill-opacity="0.85"/>
<path fill-rule="evenodd" clip-rule="evenodd" d="M101.183 23.2186C100.808 22.6833 100.322 21.8912 98.8544 19.8362C98.885 19.8668 91.8279 10.8007 91.8279 10.8007C90.9597 9.68519 91.1794 9.49921 92.3093 10.3781L101.311 17.3795C103.33 18.8215 104.142 19.328 104.685 19.7082C105.22 19.3329 106.012 18.8473 108.067 17.3795C108.037 17.4101 117.103 10.353 117.103 10.353C118.218 9.48473 118.404 9.70444 117.525 10.8344C117.525 10.8344 110.524 19.8362 110.524 19.8362C109.082 21.855 108.575 22.6675 108.195 23.21C108.571 23.7452 109.056 24.5374 110.524 26.5923C110.493 26.5617 117.55 35.6278 117.55 35.6278C118.419 36.7433 118.199 36.9293 117.069 36.0505L108.067 29.049C106.048 27.6071 105.236 27.1005 104.693 26.7203C104.158 27.0956 103.366 27.5812 101.311 29.049C101.342 29.0185 92.2756 36.0756 92.2756 36.0756C91.1601 36.9438 90.9741 36.7241 91.853 35.5941L98.8544 26.5923C100.296 24.5735 100.803 23.761 101.183 23.2186Z" fill="#FFAC33"/>
<path fill-rule="evenodd" clip-rule="evenodd" d="M141.251 70.7445C141.266 70.7587 137.976 66.5327 137.976 66.5327C137.568 66.0086 137.669 65.9191 138.196 66.3294L142.398 69.5977C143.341 70.2708 143.72 70.5072 143.973 70.6847C144.223 70.5095 144.593 70.2828 145.552 69.5977C145.538 69.6119 149.764 66.3223 149.764 66.3223C150.288 65.9144 150.377 66.0149 149.967 66.5424L146.699 70.7445C146.026 71.6868 145.789 72.0661 145.612 72.3193C145.787 72.5692 146.014 72.939 146.699 73.8982C146.684 73.884 149.974 78.11 149.974 78.11C150.382 78.6341 150.281 78.7236 149.754 78.3133L145.552 75.045C144.61 74.3719 144.23 74.1355 143.977 73.958C143.727 74.1332 143.357 74.3599 142.398 75.045C142.412 75.0308 138.186 78.3204 138.186 78.3204C137.662 78.7283 137.573 78.6278 137.983 78.1003L141.251 73.8982C141.924 72.9559 142.161 72.5766 142.338 72.3234C142.163 72.0735 141.937 71.7037 141.251 70.7445Z" fill="#FFAC33"/>
</svg>
