<svg width="150" height="150" viewBox="0 0 150 150" fill="none" xmlns="http://www.w3.org/2000/svg">
<path d="M84.2815 12.5718C84.2815 12.5718 84.2815 6.00003 90.8533 6.00003C97.4251 6.00003 97.4251 12.5718 97.4251 12.5718V19.1436C97.4251 19.1436 97.4251 25.7154 90.8533 25.7154C84.2815 25.7154 84.2815 19.1436 84.2815 19.1436V12.5718Z" fill="#FFAC33"/>
<path d="M143.428 58.5744C143.428 58.5744 149.999 58.5744 149.999 65.1462C149.999 71.718 143.428 71.718 143.428 71.718H136.856C136.856 71.718 130.284 71.718 130.284 65.1462C130.284 58.5744 136.856 58.5744 136.856 58.5744H143.428Z" fill="#FFAC33"/>
<path d="M44.8508 58.5744C44.8508 58.5744 51.4226 58.5744 51.4226 65.1462C51.4226 71.718 44.8508 71.718 44.8508 71.718H38.279C38.279 71.718 31.7072 71.718 31.7072 65.1462C31.7072 58.5744 38.279 58.5744 38.279 58.5744H44.8508Z" fill="#FFAC33"/>
<path d="M61.6778 29.9675C61.6778 29.9675 66.3241 34.6138 61.6778 39.26C57.0316 43.9063 52.3853 39.26 52.3853 39.26L47.7358 34.6138C47.7358 34.6138 43.0895 29.9675 47.7358 25.318C52.3853 20.6717 57.0316 25.318 57.0316 25.318L61.6778 29.9675Z" fill="#FFAC33"/>
<path d="M130.682 98.9677C130.682 98.9677 135.328 103.614 130.682 108.26C126.035 112.907 121.389 108.26 121.389 108.26L116.743 103.614C116.743 103.614 112.097 98.9677 116.743 94.3215C121.389 89.6752 126.035 94.3215 126.035 94.3215L130.682 98.9677Z" fill="#FFAC33"/>
<path d="M129.325 39.2565C129.325 39.2565 124.678 43.9027 120.032 39.2565C115.386 34.6102 120.032 29.964 120.032 29.964L124.678 25.3177C124.678 25.3177 129.325 20.6714 133.971 25.3177C138.617 29.964 133.971 34.6102 133.971 34.6102L129.325 39.2565Z" fill="#FFAC33"/>
<path d="M60.3207 108.26C60.3207 108.26 55.6745 112.907 51.0282 108.26C46.382 103.614 51.0282 98.9677 51.0282 98.9677L55.6745 94.3215C55.6745 94.3215 60.3207 89.6752 64.967 94.3215C69.6133 98.9677 64.967 103.614 64.967 103.614L60.3207 108.26Z" fill="#FFAC33"/>
<path d="M84.2815 111.149C84.2815 111.149 84.2815 104.577 90.8533 104.577C97.4251 104.577 97.4251 111.149 97.4251 111.149V117.72C97.4251 117.72 97.4251 124.292 90.8533 124.292C84.2815 124.292 84.2815 117.72 84.2815 117.72V111.149Z" fill="#FFAC33"/>
<path d="M123.712 65.1461C123.712 46.9981 108.998 32.2871 90.8533 32.2871C72.7053 32.2871 57.9944 46.9981 57.9944 65.1461C57.9944 83.2908 72.7053 98.005 90.8533 98.005C108.998 98.005 123.712 83.2908 123.712 65.1461Z" fill="#FFAC33"/>
<path d="M106.004 81.0375C106.022 80.7946 106.031 80.5527 106.031 80.3118C106.03 77.7482 105.011 75.2814 103.18 73.4135C101.348 71.5456 98.8438 70.417 96.1754 70.2577C94.8787 66.9829 92.6303 64.1332 89.6964 62.0462C86.7626 59.9591 83.2663 58.7222 79.6218 58.482C75.9773 58.2418 72.3374 59.0083 69.1333 60.6907C65.9292 62.3732 63.2952 64.9011 61.5434 67.9748C60.9808 67.9127 60.4151 67.881 59.8488 67.8799C57.583 67.8728 55.3438 68.3482 53.2929 69.2718C51.242 70.1953 49.4305 71.544 47.9892 73.2204C47.7552 73.493 47.6098 73.8255 47.5712 74.1766C47.5326 74.5277 47.6024 74.882 47.772 75.1954C47.9415 75.5088 48.2034 75.7675 48.525 75.9393C48.8467 76.1112 49.2139 76.1887 49.581 76.1621C49.7793 76.1481 49.9912 76.149 50.1911 76.1499C54.8854 76.1593 59.4779 77.4622 63.4218 79.9035C67.3657 82.3448 70.4947 85.8216 72.4361 89.9199C72.6125 90.2927 72.916 90.5968 73.2967 90.7821C73.6774 90.9674 74.1126 91.0229 74.5305 90.9394C77.8194 90.2849 81.2309 90.4863 84.4112 91.5225C87.5915 92.5588 90.4247 94.3922 92.6168 96.8325C92.7931 97.0303 93.0121 97.1891 93.2586 97.298C93.5051 97.4068 93.7733 97.4632 94.0447 97.4631H108.982C109.31 97.4631 109.632 97.3808 109.917 97.2243C110.202 97.0678 110.438 96.8426 110.604 96.5711C111.645 94.8626 112.194 92.9198 112.195 90.9412C112.185 88.9095 111.606 86.9176 110.516 85.1749C109.427 83.4322 107.868 82.003 106.004 81.0375Z" fill="#7CC9F2"/>
<path d="M100.932 109.029C100.575 103.339 98.0605 97.9979 93.8999 94.0935C89.7394 90.1891 84.2456 88.0144 78.5363 88.0119C77.4859 88.0118 76.4367 88.0843 75.3963 88.2289C73.0291 83.6695 69.4553 79.8458 65.0635 77.1736C60.6718 74.5014 55.6303 73.083 50.4876 73.0729C50.1991 73.0729 49.8877 73.0748 49.6888 73.0916C44.0239 73.2344 38.5368 75.0959 33.957 78.4284C29.3771 81.7609 25.9215 86.4066 24.0495 91.7479C20.129 91.8206 16.3933 93.4258 13.6448 96.2188C10.8963 99.0117 9.35415 102.77 9.34959 106.686C9.34989 107.257 9.38342 107.828 9.45001 108.396C6.6262 109.787 4.2463 111.937 2.57716 114.603C0.908021 117.269 0.0156276 120.347 4.07217e-05 123.492C-0.00652262 126.451 0.780413 129.357 2.27909 131.91C2.44416 132.19 2.67958 132.422 2.96207 132.583C3.24455 132.744 3.56429 132.829 3.88964 132.829H24.982C25.4275 132.829 25.8583 132.67 26.1969 132.381C26.5355 132.092 26.7597 131.692 26.8291 131.252C27.3688 127.85 29.1064 124.751 31.7294 122.514C34.3525 120.277 37.6888 119.048 41.1382 119.048C44.5877 119.048 47.924 120.277 50.5471 122.514C53.1701 124.751 54.9077 127.85 55.4474 131.252C55.5168 131.692 55.741 132.092 56.0796 132.381C56.4182 132.67 56.849 132.829 57.2945 132.829H107.969C108.27 132.829 108.566 132.757 108.833 132.618C109.1 132.479 109.329 132.278 109.501 132.032C111.259 129.53 112.199 126.548 112.195 123.492C112.182 120.177 111.07 116.96 109.033 114.343C106.995 111.726 104.146 109.857 100.932 109.029Z" fill="#9CD5F2"/>
<path d="M66.0672 125.138C66.0249 124.372 65.9421 123.609 65.8193 122.851C64.9932 117.813 62.3315 113.225 58.3132 109.912C54.2949 106.599 49.1837 104.78 43.8992 104.78C38.6148 104.781 33.5041 106.602 29.4867 109.916C25.4692 113.229 22.8088 117.818 21.984 122.857C21.8621 123.613 21.7797 124.374 21.7373 125.138C18.2285 126.361 15.1957 128.599 13.0518 131.546C10.9078 134.493 9.75703 138.006 9.75604 141.607C9.75604 142.19 9.99588 142.749 10.4228 143.161C10.8497 143.573 11.4287 143.804 12.0325 143.804H75.772C76.3758 143.804 76.9548 143.573 77.3817 143.161C77.8086 142.749 78.0484 142.19 78.0484 141.607C78.0475 138.006 76.8966 134.493 74.7527 131.546C72.6088 128.599 69.576 126.361 66.0672 125.138Z" fill="#B2EBF2"/>
</svg>
