<svg width="151" height="150" viewBox="0 0 151 150" fill="none" xmlns="http://www.w3.org/2000/svg">
<path fill-rule="evenodd" clip-rule="evenodd" d="M109.278 86.4237L106.232 83.5542C105.874 83.2169 105.871 82.6731 106.23 82.3345C106.587 81.9981 107.167 81.9986 107.525 82.3362L109.278 83.9878V78.864C109.278 78.3868 109.683 78 110.192 78C110.697 78 111.106 78.3816 111.106 78.864V84.0153L112.888 82.3362C113.246 81.9989 113.823 81.9958 114.183 82.3345C114.539 82.6708 114.539 83.2166 114.181 83.5542L111.106 86.4513V99.5246L114.191 102.431C114.549 102.769 114.55 103.315 114.193 103.651C113.833 103.99 113.256 103.986 112.898 103.649L111.106 101.961V107.136C111.106 107.613 110.7 108 110.192 108C109.687 108 109.278 107.618 109.278 107.136V101.964L107.489 103.649C107.131 103.987 106.552 103.987 106.195 103.651C105.835 103.312 105.838 102.768 106.196 102.431L109.278 99.528V86.4237Z" fill="#7CC9F2"/>
<path fill-rule="evenodd" clip-rule="evenodd" d="M116.348 95.4571L120.391 94.3093C120.866 94.1743 121.347 94.4434 121.466 94.9176C121.585 95.3884 121.296 95.8794 120.82 96.0145L118.493 96.6751L122.618 99.2615C123.038 99.5001 123.177 100.038 122.924 100.469C122.673 100.897 122.133 101.053 121.708 100.812L117.558 98.2115L118.15 100.562C118.269 101.034 117.984 101.525 117.507 101.661C117.033 101.795 116.553 101.522 116.434 101.049L115.413 96.9935L103.9 90.4569L99.8047 91.6195C99.3289 91.7545 98.848 91.4821 98.7295 91.0112C98.6102 90.537 98.9003 90.0492 99.3756 89.9143L101.755 89.2389L97.584 86.6266C97.1638 86.3881 97.0252 85.8506 97.2782 85.4195C97.5296 84.9915 98.0694 84.8352 98.4942 85.0764L102.662 87.6869L102.068 85.3278C101.949 84.8551 102.237 84.3636 102.711 84.2291C103.189 84.0936 103.666 84.3683 103.785 84.8406L104.807 88.9049L116.348 95.4571Z" fill="#7CC9F2"/>
<path fill-rule="evenodd" clip-rule="evenodd" d="M104.765 97.0206L103.755 101.038C103.636 101.51 103.158 101.785 102.681 101.649C102.207 101.515 101.919 101.023 102.038 100.551L102.62 98.2386L98.4948 100.825C98.0746 101.064 97.5319 100.913 97.2788 100.482C97.0275 100.054 97.1598 99.5159 97.5846 99.2747L101.734 96.6745L99.3683 96.0029C98.893 95.868 98.6029 95.3802 98.7222 94.906C98.8407 94.4352 99.3216 94.1627 99.7974 94.2977L103.879 95.4566L115.393 88.9199L116.416 84.8508C116.535 84.3781 117.016 84.1048 117.49 84.2393C117.967 84.3748 118.251 84.8657 118.133 85.338L117.538 87.7019L121.709 85.0897C122.129 84.8511 122.671 85.0017 122.925 85.4328C123.176 85.8609 123.044 86.3987 122.619 86.6399L118.451 89.2504L120.825 89.9245C121.301 90.0595 121.59 90.5505 121.471 91.0214C121.352 91.4955 120.872 91.7646 120.396 91.6297L116.306 90.4684L104.765 97.0206Z" fill="#7CC9F2"/>
<path fill-rule="evenodd" clip-rule="evenodd" d="M83.212 128.424L80.1665 125.554C79.8085 125.217 79.8051 124.673 80.1646 124.334C80.5216 123.998 81.1008 123.999 81.4592 124.336L83.212 125.988V120.864C83.212 120.387 83.6177 120 84.1261 120C84.6309 120 85.0402 120.382 85.0402 120.864V126.015L86.8223 124.336C87.1803 123.999 87.7574 123.996 88.1168 124.334C88.4738 124.671 88.4733 125.217 88.115 125.554L85.0402 128.451V141.525L88.125 144.431C88.4833 144.769 88.4839 145.315 88.1269 145.651C87.7674 145.99 87.1903 145.986 86.8323 145.649L85.0402 143.961V149.136C85.0402 149.613 84.6344 150 84.1261 150C83.6213 150 83.212 149.618 83.212 149.136V143.964L81.4235 145.649C81.0652 145.987 80.4859 145.987 80.1289 145.651C79.7695 145.312 79.7728 144.768 80.1308 144.431L83.212 141.528V128.424Z" fill="#7CC9F2"/>
<path fill-rule="evenodd" clip-rule="evenodd" d="M90.2819 137.457L94.3252 136.309C94.8005 136.174 95.281 136.443 95.4004 136.918C95.5188 137.388 95.23 137.879 94.7543 138.014L92.4272 138.675L96.5525 141.261C96.9727 141.5 97.1114 142.038 96.8583 142.469C96.607 142.897 96.0671 143.053 95.6424 142.812L91.4928 140.212L92.0843 142.562C92.2031 143.034 91.9185 143.525 91.4413 143.661C90.9674 143.795 90.487 143.522 90.3681 143.049L89.3475 138.994L77.8344 132.457L73.739 133.619C73.2633 133.755 72.7823 133.482 72.6639 133.011C72.5445 132.537 72.8346 132.049 73.3099 131.914L75.6892 131.239L71.5183 128.627C71.0981 128.388 70.9595 127.851 71.2126 127.42C71.4639 126.991 72.0037 126.835 72.4285 127.076L76.5963 129.687L76.0027 127.328C75.8838 126.855 76.1717 126.364 76.6457 126.229C77.1229 126.094 77.6001 126.368 77.7189 126.841L78.7416 130.905L90.2819 137.457Z" fill="#7CC9F2"/>
<path fill-rule="evenodd" clip-rule="evenodd" d="M78.6997 139.021L77.6889 143.038C77.57 143.51 77.0928 143.785 76.6156 143.649C76.1417 143.515 75.8537 143.023 75.9727 142.551L76.5544 140.239L72.4291 142.825C72.0089 143.064 71.4663 142.913 71.2132 142.482C70.9618 142.054 71.0942 141.516 71.5189 141.275L75.6685 138.675L73.3026 138.003C72.8273 137.868 72.5372 137.38 72.6566 136.906C72.775 136.435 73.256 136.163 73.7317 136.298L77.8138 137.457L89.3269 130.92L90.3508 126.851C90.4697 126.378 90.9501 126.105 91.424 126.239C91.9012 126.375 92.1858 126.866 92.0669 127.338L91.4721 129.702L95.643 127.09C96.0632 126.851 96.6058 127.002 96.8589 127.433C97.1102 127.861 96.9779 128.399 96.5531 128.64L92.3853 131.25L94.7597 131.924C95.2354 132.06 95.5243 132.551 95.4058 133.021C95.2865 133.496 94.806 133.765 94.3307 133.63L90.2401 132.468L78.6997 139.021Z" fill="#7CC9F2"/>
<path fill-rule="evenodd" clip-rule="evenodd" d="M130.743 116.424L127.698 113.554C127.34 113.217 127.336 112.673 127.696 112.334C128.053 111.998 128.632 111.999 128.991 112.336L130.743 113.988V108.864C130.743 108.387 131.149 108 131.657 108C132.162 108 132.572 108.382 132.572 108.864V114.015L134.354 112.336C134.712 111.999 135.289 111.996 135.648 112.334C136.005 112.671 136.005 113.217 135.646 113.554L132.572 116.451V129.525L135.656 132.431C136.015 132.769 136.015 133.315 135.658 133.651C135.299 133.99 134.722 133.986 134.364 133.649L132.572 131.961V137.136C132.572 137.613 132.166 138 131.657 138C131.153 138 130.743 137.618 130.743 137.136V131.964L128.955 133.649C128.597 133.987 128.017 133.987 127.66 133.651C127.301 133.312 127.304 132.768 127.662 132.431L130.743 129.528V116.424Z" fill="#7CC9F2"/>
<path fill-rule="evenodd" clip-rule="evenodd" d="M137.813 125.457L141.857 124.309C142.332 124.174 142.812 124.443 142.932 124.918C143.05 125.388 142.761 125.879 142.286 126.014L139.959 126.675L144.084 129.261C144.504 129.5 144.643 130.038 144.39 130.469C144.138 130.897 143.599 131.053 143.174 130.812L139.024 128.212L139.616 130.562C139.734 131.034 139.45 131.525 138.973 131.661C138.499 131.795 138.018 131.522 137.899 131.049L136.879 126.994L125.366 120.457L121.27 121.619C120.795 121.755 120.314 121.482 120.195 121.011C120.076 120.537 120.366 120.049 120.841 119.914L123.221 119.239L119.05 116.627C118.63 116.388 118.491 115.851 118.744 115.42C118.995 114.991 119.535 114.835 119.96 115.076L124.128 117.687L123.534 115.328C123.415 114.855 123.703 114.364 124.177 114.229C124.654 114.094 125.131 114.368 125.25 114.841L126.273 118.905L137.813 125.457Z" fill="#7CC9F2"/>
<path fill-rule="evenodd" clip-rule="evenodd" d="M126.231 127.021L125.22 131.038C125.101 131.51 124.624 131.785 124.147 131.649C123.673 131.515 123.385 131.023 123.504 130.551L124.086 128.239L119.96 130.825C119.54 131.064 118.998 130.913 118.745 130.482C118.493 130.054 118.626 129.516 119.05 129.275L123.2 126.675L120.834 126.003C120.359 125.868 120.069 125.38 120.188 124.906C120.306 124.435 120.787 124.163 121.263 124.298L125.345 125.457L136.858 118.92L137.882 114.851C138.001 114.378 138.481 114.105 138.955 114.239C139.433 114.375 139.717 114.866 139.598 115.338L139.004 117.702L143.174 115.09C143.595 114.851 144.137 115.002 144.39 115.433C144.642 115.861 144.509 116.399 144.084 116.64L139.917 119.25L142.291 119.924C142.767 120.06 143.056 120.551 142.937 121.021C142.818 121.496 142.337 121.765 141.862 121.63L137.771 120.468L126.231 127.021Z" fill="#7CC9F2"/>
<path fill-rule="evenodd" clip-rule="evenodd" d="M35.6805 116.424L32.635 113.554C32.277 113.217 32.2736 112.673 32.6331 112.334C32.9901 111.998 33.5693 111.999 33.9277 112.336L35.6805 113.988V108.864C35.6805 108.387 36.0862 108 36.5946 108C37.0994 108 37.5087 108.382 37.5087 108.864V114.015L39.2908 112.336C39.6488 111.999 40.2259 111.996 40.5854 112.334C40.9423 112.671 40.9418 113.217 40.5835 113.554L37.5087 116.451V129.525L40.5935 132.431C40.9518 132.769 40.9524 133.315 40.5954 133.651C40.2359 133.99 39.6588 133.986 39.3008 133.649L37.5087 131.961V137.136C37.5087 137.613 37.103 138 36.5946 138C36.0898 138 35.6805 137.618 35.6805 137.136V131.964L33.892 133.649C33.5337 133.987 32.9544 133.987 32.5974 133.651C32.238 133.312 32.2413 132.768 32.5993 132.431L35.6805 129.528V116.424Z" fill="#7CC9F2"/>
<path fill-rule="evenodd" clip-rule="evenodd" d="M42.7504 125.457L46.7937 124.309C47.269 124.174 47.7495 124.443 47.8689 124.918C47.9873 125.388 47.6985 125.879 47.2228 126.014L44.8957 126.675L49.021 129.261C49.4412 129.5 49.5799 130.038 49.3268 130.469C49.0755 130.897 48.5356 131.053 48.1109 130.812L43.9613 128.212L44.5528 130.562C44.6716 131.034 44.387 131.525 43.9098 131.661C43.4359 131.795 42.9555 131.522 42.8366 131.049L41.816 126.994L30.3029 120.457L26.2075 121.619C25.7318 121.755 25.2508 121.482 25.1324 121.011C25.0131 120.537 25.3031 120.049 25.7784 119.914L28.1577 119.239L23.9868 116.627C23.5666 116.388 23.428 115.851 23.6811 115.42C23.9324 114.991 24.4722 114.835 24.897 115.076L29.0648 117.687L28.4712 115.328C28.3523 114.855 28.6402 114.364 29.1142 114.229C29.5914 114.094 30.0686 114.368 30.1874 114.841L31.2101 118.905L42.7504 125.457Z" fill="#7CC9F2"/>
<path fill-rule="evenodd" clip-rule="evenodd" d="M31.1682 127.021L30.1574 131.038C30.0385 131.51 29.5613 131.785 29.0841 131.649C28.6102 131.515 28.3222 131.023 28.4412 130.551L29.0229 128.239L24.8976 130.825C24.4774 131.064 23.9348 130.913 23.6817 130.482C23.4303 130.054 23.5627 129.516 23.9875 129.275L28.137 126.675L25.7711 126.003C25.2958 125.868 25.0058 125.38 25.1251 124.906C25.2435 124.435 25.7245 124.163 26.2002 124.298L30.2823 125.457L41.7954 118.92L42.8193 114.851C42.9382 114.378 43.4186 114.105 43.8925 114.239C44.3697 114.375 44.6543 114.866 44.5355 115.338L43.9406 117.702L48.1115 115.09C48.5317 114.851 49.0743 115.002 49.3274 115.433C49.5787 115.861 49.4464 116.399 49.0216 116.64L44.8538 119.25L47.2282 119.924C47.704 120.06 47.9928 120.551 47.8743 121.021C47.755 121.496 47.2745 121.765 46.7992 121.63L42.7086 120.468L31.1682 127.021Z" fill="#7CC9F2"/>
<path fill-rule="evenodd" clip-rule="evenodd" d="M75.5456 96.9237L72.5001 94.0542C72.1421 93.7169 72.1387 93.1731 72.4982 92.8345C72.8552 92.4981 73.4345 92.4986 73.7928 92.8362L75.5456 94.4878V89.364C75.5456 88.8868 75.9514 88.5 76.4597 88.5C76.9645 88.5 77.3738 88.8816 77.3738 89.364V94.5153L79.1559 92.8362C79.5139 92.4989 80.091 92.4958 80.4505 92.8345C80.8074 93.1708 80.8069 93.7166 80.4486 94.0542L77.3738 96.9513V110.025L80.4586 112.931C80.817 113.269 80.8175 113.815 80.4605 114.151C80.1011 114.49 79.5239 114.486 79.1659 114.149L77.3738 112.461V117.636C77.3738 118.113 76.9681 118.5 76.4597 118.5C75.9549 118.5 75.5456 118.118 75.5456 117.636V112.464L73.7571 114.149C73.3988 114.487 72.8195 114.487 72.4625 114.151C72.1031 113.812 72.1064 113.268 72.4644 112.931L75.5456 110.028V96.9237Z" fill="#7CC9F2"/>
<path fill-rule="evenodd" clip-rule="evenodd" d="M82.6156 105.957L86.6588 104.809C87.1341 104.674 87.6147 104.943 87.734 105.418C87.8524 105.888 87.5636 106.379 87.0879 106.514L84.7608 107.175L88.8861 109.761C89.3063 110 89.445 110.538 89.1919 110.969C88.9406 111.397 88.4008 111.553 87.976 111.312L83.8264 108.712L84.4179 111.062C84.5367 111.534 84.2521 112.025 83.7749 112.161C83.301 112.295 82.8206 112.022 82.7017 111.549L81.6811 107.494L70.168 100.957L66.0726 102.119C65.5969 102.255 65.1159 101.982 64.9975 101.511C64.8782 101.037 65.1683 100.549 65.6436 100.414L68.0228 99.7389L63.852 97.1266C63.4317 96.8881 63.2931 96.3506 63.5462 95.9195C63.7975 95.4915 64.3373 95.3352 64.7621 95.5764L68.9299 98.1869L68.3363 95.8278C68.2174 95.3551 68.5054 94.8636 68.9793 94.7291C69.4565 94.5936 69.9337 94.8683 70.0525 95.3406L71.0752 99.4049L82.6156 105.957Z" fill="#7CC9F2"/>
<path fill-rule="evenodd" clip-rule="evenodd" d="M71.0333 107.521L70.0225 111.538C69.9036 112.01 69.4264 112.285 68.9492 112.149C68.4753 112.015 68.1873 111.523 68.3063 111.051L68.888 108.739L64.7627 111.325C64.3425 111.564 63.7999 111.413 63.5468 110.982C63.2955 110.554 63.4278 110.016 63.8526 109.775L68.0021 107.175L65.6363 106.503C65.161 106.368 64.8709 105.88 64.9902 105.406C65.1086 104.935 65.5896 104.663 66.0653 104.798L70.1474 105.957L81.6605 99.4199L82.6844 95.3508C82.8033 94.8781 83.2837 94.6048 83.7576 94.7393C84.2348 94.8748 84.5194 95.3657 84.4006 95.838L83.8058 98.2019L87.9766 95.5897C88.3968 95.3511 88.9394 95.5017 89.1925 95.9328C89.4438 96.3609 89.3115 96.8987 88.8867 97.1399L84.7189 99.7504L87.0933 100.424C87.5691 100.56 87.8579 101.051 87.7394 101.521C87.6201 101.996 87.1396 102.265 86.6643 102.13L82.5737 100.968L71.0333 107.521Z" fill="#7CC9F2"/>
<path d="M135.554 46.9707C135.077 39.5371 131.715 32.5604 126.152 27.46C120.59 22.3595 113.245 19.5186 105.613 19.5153C104.208 19.5153 102.806 19.61 101.415 19.7988C98.25 13.8427 93.4721 8.84764 87.6007 5.35684C81.7293 1.86604 74.9893 0.0132425 68.114 0C67.7283 0 67.312 0.00243997 67.0461 0.0243947C59.4727 0.211029 52.1369 2.64269 46.014 6.99608C39.8912 11.3495 35.2713 17.4183 32.7687 24.3958C27.5273 24.4908 22.533 26.5877 18.8585 30.2363C15.184 33.8848 13.1223 38.7939 13.1162 43.9094C13.1166 44.6562 13.1615 45.4023 13.2505 46.1439C9.47532 47.9615 6.29362 50.7692 4.06213 54.2524C1.83064 57.7355 0.637592 61.7564 0.616754 65.8642C0.607979 69.7293 1.66004 73.5263 3.66363 76.8605C3.88431 77.2263 4.19906 77.5295 4.57671 77.7401C4.95436 77.9507 5.38183 78.0614 5.81679 78.0612H34.0154C34.6109 78.0612 35.1869 77.8538 35.6396 77.4763C36.0923 77.0987 36.392 76.5759 36.4848 76.0019C37.2063 71.5572 39.5293 67.5096 43.036 64.587C46.5428 61.6645 51.0031 60.0588 55.6148 60.0588C60.2264 60.0588 64.6868 61.6645 68.1935 64.587C71.7003 67.5096 74.0233 71.5572 74.7448 76.0019C74.8375 76.5759 75.1373 77.0987 75.59 77.4763C76.0427 77.8538 76.6186 78.0612 77.2141 78.0612H144.961C145.364 78.0614 145.76 77.9668 146.116 77.7856C146.473 77.6043 146.78 77.3417 147.01 77.0201C149.359 73.7522 150.617 69.856 150.611 65.8642C150.594 61.5339 149.107 57.331 146.383 53.9126C143.659 50.4942 139.851 48.053 135.554 46.9707Z" fill="#9CD5F2"/>
<path d="M80.7518 78.2576C80.7058 77.3866 80.6159 76.5185 80.4824 75.6567C79.5848 69.9261 76.6926 64.7072 72.3262 60.9392C67.9598 57.1711 62.4059 55.1013 56.6638 55.102C50.9216 55.1028 45.3682 57.1741 41.0028 60.9433C36.6374 64.7125 33.7465 69.9321 32.8503 75.663C32.7178 76.5227 32.6284 77.3887 32.5822 78.2576C28.7696 79.6491 25.474 82.1942 23.1444 85.5462C20.8148 88.8983 19.5643 92.8944 19.5632 96.9904C19.5632 97.6533 19.8238 98.289 20.2877 98.7577C20.7516 99.2264 21.3808 99.4898 22.0368 99.4898H91.2972C91.9532 99.4898 92.5824 99.2264 93.0463 98.7577C93.5102 98.289 93.7708 97.6533 93.7708 96.9904C93.7697 92.8944 92.5192 88.8983 90.1896 85.5462C87.86 82.1942 84.5645 79.6491 80.7518 78.2576Z" fill="#B2EBF2"/>
</svg>
