<svg width="150" height="150" viewBox="0 0 150 150" fill="none" xmlns="http://www.w3.org/2000/svg">
<g clip-path="url(#clip0_35_1332)">
<path d="M149.603 86.9748C151.118 85.4389 149.654 83.0006 147.485 83.1655C146.168 83.2655 144.838 83.3165 143.495 83.3165C115.311 83.3165 92.4638 60.8567 92.4638 33.1512C92.4638 24.6299 94.6251 16.6048 98.4384 9.57673C99.4641 7.68627 97.7736 5.39 95.7352 6.14879C76.7354 13.2216 63.225 31.2985 63.225 52.4822C63.225 79.8301 85.742 102 113.518 102C127.674 102 140.464 96.2419 149.603 86.9748Z" fill="#2C2C2C" fill-opacity="0.85"/>
<path d="M106.403 80.216C106.422 79.9826 106.431 79.7502 106.431 79.5186C106.43 77.0552 105.389 74.6847 103.519 72.8897C101.649 71.0948 99.0919 70.0103 96.3671 69.8572C95.043 66.7104 92.747 63.972 89.7512 61.9664C86.7553 59.9609 83.1851 58.7723 79.4636 58.5415C75.7421 58.3106 72.0253 59.0472 68.7535 60.6639C65.4816 62.2807 62.792 64.7098 61.0031 67.6635C60.4287 67.6039 59.851 67.5734 59.2727 67.5723C56.959 67.5655 54.6725 68.0223 52.5782 68.9098C50.484 69.7973 48.6342 71.0933 47.1625 72.7043C46.9235 72.9662 46.775 73.2857 46.7356 73.6231C46.6961 73.9605 46.7674 74.3009 46.9406 74.602C47.1138 74.9032 47.3812 75.1518 47.7096 75.3169C48.038 75.4821 48.413 75.5566 48.7879 75.531C48.9903 75.5175 49.2067 75.5184 49.4109 75.5193C54.2044 75.5283 58.894 76.7803 62.9212 79.1263C66.9485 81.4722 70.1436 84.8132 72.1261 88.7514C72.3061 89.1097 72.6161 89.4019 73.0048 89.58C73.3936 89.7581 73.8379 89.8114 74.2647 89.7311C77.6231 89.1022 81.1067 89.2957 84.3543 90.2915C87.6018 91.2872 90.4949 93.049 92.7333 95.3941C92.9133 95.5841 93.1369 95.7367 93.3887 95.8414C93.6404 95.946 93.9143 96.0001 94.1914 96H109.444C109.779 96 110.108 95.9209 110.399 95.7706C110.69 95.6202 110.932 95.4038 111.101 95.1429C112.163 93.5011 112.724 91.6342 112.725 89.7329C112.716 87.7805 112.124 85.8664 111.011 84.1918C109.899 82.5172 108.307 81.1438 106.403 80.216Z" fill="#7CC9F2"/>
<path d="M101.432 109.603C101.074 103.889 98.5524 98.5268 94.3805 94.6065C90.2086 90.6862 84.6998 88.5026 78.975 88.5C77.9217 88.5 76.8697 88.5728 75.8265 88.7179C73.4529 84.1399 69.8693 80.3005 65.4656 77.6174C61.0619 74.9343 56.0067 73.5102 50.85 73.5C50.5607 73.5 50.2485 73.5019 50.049 73.5188C44.3687 73.6622 38.8667 75.5312 34.2744 78.8774C29.682 82.2235 26.217 86.8882 24.34 92.2513C20.4087 92.3243 16.6629 93.936 13.9069 96.7404C11.1509 99.5448 9.6046 103.318 9.60003 107.25C9.60033 107.824 9.63395 108.397 9.70072 108.967C6.86922 110.364 4.48285 112.523 2.80917 115.2C1.13548 117.877 0.240661 120.968 0.225032 124.125C0.21845 127.096 1.00753 130.014 2.51028 132.577C2.6758 132.858 2.91187 133.091 3.19512 133.253C3.47837 133.415 3.79898 133.5 4.12522 133.5H25.275C25.7217 133.5 26.1537 133.341 26.4932 133.05C26.8328 132.76 27.0576 132.358 27.1271 131.917C27.6683 128.501 29.4106 125.39 32.0408 123.143C34.6709 120.897 38.0163 119.663 41.4752 119.663C44.9341 119.663 48.2795 120.897 50.9096 123.143C53.5398 125.39 55.2821 128.501 55.8232 131.917C55.8928 132.358 56.1176 132.76 56.4572 133.05C56.7967 133.341 57.2287 133.5 57.6754 133.5H108.488C108.789 133.5 109.087 133.427 109.354 133.288C109.622 133.149 109.851 132.947 110.024 132.7C111.786 130.188 112.73 127.193 112.725 124.125C112.713 120.797 111.598 117.566 109.554 114.939C107.511 112.311 104.655 110.435 101.432 109.603Z" fill="#9CD5F2"/>
<path d="M66.3828 125.345C66.3409 124.58 66.2591 123.817 66.1378 123.06C65.3212 118.025 62.6905 113.439 58.7187 110.129C54.747 106.818 49.6951 104.999 44.472 105C39.2489 105.001 34.1975 106.821 30.2267 110.132C26.2558 113.444 23.6263 118.03 22.8111 123.065C22.6906 123.821 22.6092 124.582 22.5672 125.345C19.0992 126.568 16.1015 128.804 13.9825 131.749C11.8634 134.694 10.726 138.205 10.725 141.804C10.725 142.386 10.962 142.945 11.384 143.357C11.806 143.769 12.3783 144 12.975 144H75.975C76.5717 144 77.144 143.769 77.566 143.357C77.9879 142.945 78.225 142.386 78.225 141.804C78.224 138.205 77.0865 134.694 74.9675 131.749C72.8485 128.804 69.8508 126.568 66.3828 125.345Z" fill="#B2EBF2"/>
</g>
<defs>
<clipPath id="clip0_35_1332">
<rect width="150" height="150" fill="white" transform="matrix(1 0 0 -1 0 150)"/>
</clipPath>
</defs>
</svg>
