<svg width="151" height="150" viewBox="0 0 151 150" fill="none" xmlns="http://www.w3.org/2000/svg">
<path d="M142.117 45.4024C142.141 45.0757 142.154 44.7502 142.154 44.4261C142.153 40.9773 140.78 37.6586 138.315 35.1456C135.85 32.6327 132.479 31.1145 128.887 30.9001C127.142 26.4945 124.115 22.6608 120.166 19.853C116.217 17.0453 111.511 15.3812 106.605 15.058C101.7 14.7349 96.8004 15.7661 92.4875 18.0295C88.1746 20.2929 84.6292 23.6937 82.2711 27.829C81.5139 27.7454 80.7524 27.7027 79.9902 27.7012C76.9403 27.6917 73.9262 28.3312 71.1656 29.5737C68.405 30.8162 65.9666 32.6306 64.0266 34.886C63.7116 35.2526 63.5159 35.6999 63.4639 36.1723C63.4119 36.6447 63.5059 37.1212 63.7342 37.5429C63.9624 37.9645 64.3149 38.3125 64.7479 38.5437C65.1808 38.775 65.6751 38.8792 66.1693 38.8435C66.4361 38.8246 66.7214 38.8258 66.9905 38.827C73.3092 38.8396 79.491 40.5924 84.7996 43.8768C90.1082 47.1611 94.32 51.8385 96.9332 57.352C97.1706 57.8535 97.5791 58.2627 98.0916 58.512C98.604 58.7613 99.1898 58.8359 99.7524 58.7236C104.179 57.8431 108.771 58.114 113.052 59.5081C117.333 60.9021 121.147 63.3687 124.097 66.6517C124.335 66.9178 124.629 67.1314 124.961 67.2779C125.293 67.4243 125.654 67.5001 126.019 67.5H146.126C146.567 67.5 147.001 67.3893 147.384 67.1788C147.767 66.9682 148.086 66.6653 148.309 66.3C149.71 64.0015 150.449 61.3878 150.45 58.726C150.438 55.9927 149.657 53.313 148.191 50.9685C146.725 48.6241 144.626 46.7013 142.117 45.4024Z" fill="#7CC9F2"/>
<path d="M135.393 82.9338C134.915 75.5061 131.553 68.5349 125.991 63.4384C120.428 58.342 113.083 55.5033 105.45 55.5C104.046 55.5 102.643 55.5946 101.252 55.7832C98.0872 49.8319 93.3091 44.8407 87.4375 41.3526C81.5658 37.8646 74.8256 36.0132 67.95 36C67.5643 36 67.148 36.0024 66.882 36.0244C59.3083 36.2109 51.9722 38.6406 45.8491 42.9906C39.726 47.3406 35.106 53.4047 32.6033 60.3767C27.3616 60.4716 22.3672 62.5669 18.6925 66.2125C15.0179 69.8582 12.9561 74.7635 12.95 79.875C12.9504 80.6212 12.9953 81.3667 13.0843 82.1077C9.30896 83.9238 6.12713 86.7294 3.89555 90.2098C1.66397 93.6903 0.470875 97.708 0.450036 101.812C0.441261 105.675 1.49336 109.469 3.49704 112.8C3.71773 113.166 4.03248 113.469 4.41015 113.679C4.78782 113.89 5.2153 114 5.65028 114H33.85C34.4456 114 35.0215 113.793 35.4743 113.415C35.927 113.038 36.2267 112.516 36.3195 111.942C37.041 107.501 39.3641 103.457 42.871 100.536C46.3779 97.6161 50.8384 96.0117 55.4503 96.0117C60.0621 96.0117 64.5226 97.6161 68.0295 100.536C71.5364 103.457 73.8595 107.501 74.581 111.942C74.6738 112.516 74.9735 113.038 75.4263 113.415C75.879 113.793 76.455 114 77.0505 114H144.8C145.203 114 145.599 113.906 145.955 113.725C146.312 113.543 146.619 113.281 146.849 112.96C149.198 109.694 150.456 105.801 150.45 101.812C150.433 97.4856 148.947 93.286 146.222 89.8703C143.498 86.4546 139.69 84.0153 135.393 82.9338Z" fill="#9CD5F2"/>
<path d="M80.292 114.192C80.2455 113.339 80.1546 112.488 80.0197 111.644C79.1125 106.028 76.1894 100.913 71.7764 97.2204C67.3633 93.5277 61.7501 91.4993 55.9467 91.5C50.1432 91.5007 44.5306 93.5306 40.1185 97.2244C35.7065 100.918 32.7847 106.033 31.879 111.65C31.7451 112.492 31.6546 113.341 31.608 114.192C27.7546 115.556 24.4239 118.05 22.0694 121.335C19.7149 124.62 18.4511 128.537 18.45 132.551C18.45 133.2 18.7134 133.823 19.1822 134.283C19.6511 134.742 20.2869 135 20.95 135H90.95C91.613 135 92.2489 134.742 92.7178 134.283C93.1866 133.823 93.45 133.2 93.45 132.551C93.4489 128.537 92.1851 124.62 89.8306 121.335C87.4761 118.05 84.1453 115.556 80.292 114.192Z" fill="#B2EBF2"/>
</svg>
