<svg width="151" height="150" viewBox="0 0 151 150" fill="none" xmlns="http://www.w3.org/2000/svg">
<path d="M50.8195 97.1427C50.5401 97.0628 50.2419 97.0272 49.9419 97.0379C49.642 97.0487 49.3462 97.1057 49.0714 97.2056C48.7966 97.3055 48.5483 97.4463 48.3405 97.6201C48.1328 97.7939 47.9698 97.9972 47.8608 98.2183L37.7413 118.641C37.5209 119.088 37.5337 119.58 37.7769 120.01C38.02 120.439 38.4736 120.771 39.0379 120.932C39.6022 121.094 40.2309 121.071 40.7858 120.869C41.3406 120.667 41.7762 120.303 41.9965 119.857L52.1379 99.4147C52.3501 98.9686 52.3306 98.4793 52.0836 98.0536C51.8366 97.628 51.3822 97.3005 50.8195 97.1427ZM67.7179 96.2129C67.4385 96.1329 67.1403 96.0973 66.8403 96.1081C66.5404 96.1189 66.2446 96.1758 65.9698 96.2757C65.695 96.3756 65.4466 96.5165 65.2389 96.6903C65.0312 96.864 64.8682 97.0673 64.7592 97.2884L44.545 138.169C44.4358 138.39 44.3828 138.625 44.3889 138.859C44.395 139.094 44.4601 139.324 44.5805 139.537C44.7009 139.75 44.8743 139.941 45.0906 140.099C45.307 140.258 45.5622 140.38 45.8416 140.46C46.121 140.54 46.4191 140.575 46.719 140.564C47.0189 140.554 47.3147 140.497 47.5894 140.397C47.8642 140.297 48.1125 140.156 48.3202 139.982C48.528 139.809 48.6911 139.605 48.8002 139.384L69.0829 98.5002C69.19 98.276 69.2396 98.0385 69.2288 97.8015C69.2179 97.5645 69.1469 97.3328 69.0199 97.1199C68.8928 96.907 68.7123 96.7171 68.4887 96.5614C68.2652 96.4057 68.0031 96.2872 67.7179 96.2129ZM101.537 94.3519C101.258 94.2719 100.96 94.2363 100.66 94.2471C100.36 94.2579 100.064 94.3149 99.7894 94.4148C99.5146 94.5146 99.2662 94.6555 99.0585 94.8293C98.8508 95.003 98.6878 95.2063 98.5788 95.4275L78.2733 136.313C78.1642 136.534 78.1112 136.769 78.1173 137.003C78.1234 137.238 78.1885 137.468 78.3089 137.681C78.4293 137.894 78.6026 138.085 78.819 138.243C79.0354 138.402 79.2905 138.524 79.5699 138.604C79.8493 138.684 80.1475 138.719 80.4474 138.708C80.7473 138.698 81.0431 138.641 81.3178 138.541C81.5925 138.441 81.8409 138.3 82.0486 138.126C82.2563 137.953 82.4194 137.75 82.5286 137.528L102.811 96.6443C103.034 96.2 103.024 95.7093 102.786 95.2796C102.547 94.8499 102.098 94.5164 101.537 94.3519ZM84.6163 95.283C84.3369 95.203 84.0387 95.1674 83.7387 95.1782C83.4388 95.189 83.1429 95.246 82.8682 95.3459C82.5934 95.4458 82.345 95.5866 82.1373 95.7604C81.9296 95.9342 81.7666 96.1374 81.6576 96.3586L71.5153 116.783C71.2949 117.229 71.3077 117.721 71.5508 118.151C71.794 118.581 72.2476 118.913 72.8119 119.074C73.3762 119.235 74.0049 119.212 74.5597 119.011C75.1146 118.809 75.5501 118.445 75.7705 117.998L85.9119 97.5563C86.1256 97.1122 86.1095 96.6246 85.867 96.199C85.6244 95.7735 85.1751 95.4443 84.6163 95.283Z" fill="#B3E5FC"/>
<path d="M135.018 56.8144C134.54 49.2474 131.178 42.1453 125.616 36.9533C120.053 31.7612 112.708 28.8693 105.075 28.8659C103.671 28.8658 102.268 28.9623 100.877 29.1544C97.7122 23.0914 92.9341 18.0066 87.0625 14.4531C81.1908 10.8996 74.4506 9.01348 67.575 9C67.1892 9 66.773 9.00248 66.507 9.02483C58.9333 9.21482 51.5972 11.6902 45.4741 16.1218C39.351 20.5534 34.731 26.7313 32.2283 33.8341C26.9866 33.9308 21.9922 36.0653 18.3175 39.7794C14.6429 43.4935 12.5811 48.4909 12.575 53.6982C12.5754 54.4584 12.6203 55.2179 12.7093 55.9729C8.93396 57.823 5.75213 60.6812 3.52055 64.227C1.28897 67.7727 0.0958752 71.8658 0.0750361 76.0474C0.0662612 79.982 1.11836 83.8471 3.12203 87.2413C3.34273 87.6136 3.65748 87.9222 4.03515 88.1366C4.41282 88.351 4.8403 88.4637 5.27528 88.4635H33.475C34.0706 88.4635 35.3416 88.4562 35.9445 88.4635C36.5474 88.4709 36.1083 88.4635 36.875 88.4635C38.4083 88.4635 37.6416 88.4635 43.775 88.4635C48.375 88.4635 50.6631 88.4635 55.275 88.4635C59.8868 88.4635 59.875 88.4012 66.0083 88.4635C70.1352 88.5055 65.2416 88.5184 72.1416 88.4635C74.1263 88.4477 73.675 88.4635 74.4417 88.4635C75.2084 88.4635 76.08 88.4635 76.6755 88.4635H144.425C144.828 88.4637 145.224 88.3674 145.58 88.1829C145.937 87.9984 146.244 87.7311 146.474 87.4037C148.823 84.0771 150.081 80.1109 150.075 76.0474C150.058 71.6393 148.572 67.3609 145.847 63.8811C143.123 60.4013 139.315 57.9162 135.018 56.8144Z" fill="#9CD5F2"/>
</svg>
