<svg width="150" height="150" viewBox="0 0 150 150" fill="none" xmlns="http://www.w3.org/2000/svg">
<path fill-rule="evenodd" clip-rule="evenodd" d="M71.3976 42.1186L56.9819 27.7711C55.2872 26.0845 55.2714 23.3657 56.9729 21.6723C58.6626 19.9906 61.4046 19.9931 63.1008 21.6812L71.3976 29.9388V4.3198C71.3976 1.93404 73.3181 0 75.7244 0C78.1139 0 80.0511 1.90808 80.0511 4.3198V30.0765L88.4863 21.6812C90.181 19.9946 92.9127 19.9789 94.6142 21.6723C96.3039 23.354 96.3014 26.083 94.6052 27.7711L80.0511 42.2564V107.623L94.6528 122.156C96.3489 123.844 96.3514 126.573 94.6618 128.254C92.9603 129.948 90.2285 129.932 88.5339 128.245L80.0511 119.803V145.68C80.0511 148.066 78.1306 150 75.7244 150C73.3348 150 71.3976 148.092 71.3976 145.68V119.82L62.932 128.245C61.2358 129.934 58.4938 129.936 56.8041 128.254C55.1026 126.561 55.1184 123.842 56.8131 122.156L71.3976 107.64V42.1186Z" fill="#7CC9F2"/>
<path fill-rule="evenodd" clip-rule="evenodd" d="M104.862 87.2854L124.001 81.5464C126.251 80.8717 128.525 82.217 129.09 84.5878C129.651 86.9421 128.284 89.397 126.032 90.0723L115.017 93.3753L134.544 106.307C136.533 107.5 137.189 110.188 135.991 112.343C134.801 114.483 132.246 115.264 130.235 114.059L110.594 101.058L113.394 112.811C113.956 115.172 112.609 117.627 110.35 118.304C108.107 118.977 105.833 117.61 105.27 115.247L100.44 94.9677L45.9433 62.2844L26.558 68.0974C24.3061 68.7726 22.0297 67.4104 21.4689 65.056C20.9042 62.6852 22.2773 60.2462 24.5271 59.5715L35.7889 56.1945L16.0467 43.1332C14.0577 41.9403 13.4014 39.253 14.5994 37.0977C15.789 34.9572 18.3442 34.1761 20.3548 35.382L40.0828 48.4347L37.2731 36.6389C36.7101 34.2755 38.0732 31.8182 40.3164 31.1455C42.5753 30.4681 44.8341 31.8417 45.3965 34.2029L50.2372 54.5246L104.862 87.2854Z" fill="#7CC9F2"/>
<path fill-rule="evenodd" clip-rule="evenodd" d="M50.0389 95.1029L45.2543 115.189C44.6918 117.551 42.433 118.924 40.1741 118.247C37.9309 117.574 36.5679 115.117 37.1308 112.753L39.8845 101.193L20.3577 114.125C18.3687 115.318 15.8002 114.565 14.6023 112.409C13.4126 110.269 14.039 107.58 16.0496 106.374L35.6913 93.3727L24.4926 90.0146C22.2428 89.34 20.8696 86.9009 21.4344 84.5301C21.9952 82.1758 24.2716 80.8135 26.5234 81.4887L45.8456 87.2828L100.342 54.5995L105.188 34.2539C105.751 31.8905 108.025 30.5238 110.268 31.1964C112.527 31.8738 113.874 34.3286 113.312 36.6899L110.496 48.5096L130.238 35.4483C132.227 34.2554 134.796 35.0086 135.994 37.164C137.184 39.3044 136.557 41.9936 134.547 43.1995L114.819 56.2522L126.058 59.6225C128.309 60.2977 129.677 62.7526 129.116 65.107C128.551 67.4777 126.277 68.823 124.027 68.1484L104.664 62.3422L50.0389 95.1029Z" fill="#7CC9F2"/>
</svg>
