<svg width="151" height="150" viewBox="0 0 151 150" fill="none" xmlns="http://www.w3.org/2000/svg">
<path d="M135.017 49.6188C134.54 41.7662 131.177 34.3961 125.615 29.0081C120.052 23.6201 112.707 20.6191 105.074 20.6155C103.67 20.6155 102.267 20.7155 100.876 20.915C97.711 14.6232 92.9328 9.34645 87.0612 5.65885C81.1895 1.97125 74.4492 0.0139891 67.5735 0C67.1877 0 66.7714 0.00257753 66.5054 0.02577C58.9317 0.222927 51.5955 2.79168 45.4723 7.39051C39.3491 11.9893 34.729 18.4004 32.2263 25.7712C26.9846 25.8715 21.9901 28.0867 18.3154 31.9409C14.6407 35.7951 12.5789 40.9811 12.5728 46.385C12.5732 47.1738 12.618 47.962 12.707 48.7454C8.93166 50.6654 5.74979 53.6315 3.51818 57.311C1.28658 60.9906 0.0934646 65.2381 0.0726252 69.5775C0.0638502 73.6605 1.11597 77.6716 3.11966 81.1938C3.34036 81.5802 3.65512 81.9004 4.03279 82.1229C4.41046 82.3454 4.83795 82.4623 5.27294 82.4622H33.473C34.0686 82.4622 35.3397 82.4545 35.9426 82.4622C36.5454 82.4698 36.1064 82.4622 36.873 82.4622C38.4064 82.4622 37.6397 82.4622 43.7731 82.4622C48.3732 82.4622 50.6614 82.4622 55.2733 82.4622C59.8852 82.4622 59.8733 82.3975 66.0068 82.4622C70.1337 82.5057 65.2401 82.5191 72.1402 82.4622C74.1249 82.4458 73.6736 82.4622 74.4402 82.4622C75.2069 82.4622 76.0785 82.4622 76.6741 82.4622H144.425C144.827 82.4623 145.223 82.3624 145.58 82.171C145.937 81.9795 146.243 81.7021 146.473 81.3623C148.823 77.9102 150.081 73.7943 150.074 69.5775C150.058 65.003 148.571 60.5632 145.847 56.9521C143.123 53.341 139.314 50.7621 135.017 49.6188Z" fill="#9CD5F2"/>
<g clip-path="url(#clip0_35_1355)">
<path fill-rule="evenodd" clip-rule="evenodd" d="M110.256 86.4237L107.372 83.5542C107.033 83.2169 107.03 82.6731 107.371 82.3345C107.709 81.9981 108.257 81.9986 108.596 82.3362L110.256 83.9878V78.864C110.256 78.3868 110.64 78 111.121 78C111.599 78 111.986 78.3816 111.986 78.864V84.0153L113.673 82.3362C114.012 81.9989 114.559 81.9958 114.899 82.3345C115.237 82.6708 115.236 83.2166 114.897 83.5542L111.986 86.4513V99.5246L114.907 102.431C115.246 102.769 115.246 103.315 114.908 103.651C114.568 103.99 114.022 103.986 113.683 103.649L111.986 101.961V107.136C111.986 107.613 111.602 108 111.121 108C110.643 108 110.256 107.618 110.256 107.136V101.964L108.562 103.649C108.223 103.987 107.675 103.987 107.337 103.651C106.997 103.312 107 102.768 107.339 102.431L110.256 99.528V86.4237Z" fill="#7CC9F2"/>
<path fill-rule="evenodd" clip-rule="evenodd" d="M116.948 95.4571L120.776 94.3093C121.226 94.1743 121.681 94.4434 121.794 94.9176C121.906 95.3884 121.633 95.8794 121.182 96.0145L118.979 96.6751L122.885 99.2615C123.283 99.5001 123.414 100.038 123.174 100.469C122.936 100.897 122.425 101.053 122.023 100.812L118.095 98.2115L118.655 100.562C118.767 101.034 118.498 101.525 118.046 101.661C117.597 101.795 117.143 101.522 117.03 101.049L116.064 96.9935L105.165 90.4569L101.288 91.6195C100.837 91.7545 100.382 91.4821 100.27 91.0112C100.157 90.537 100.431 90.0492 100.881 89.9143L103.134 89.2389L99.1853 86.6266C98.7875 86.3881 98.6563 85.8506 98.8959 85.4195C99.1338 84.9915 99.6448 84.8352 100.047 85.0764L103.993 87.6869L103.431 85.3278C103.318 84.8551 103.591 84.3636 104.039 84.2291C104.491 84.0936 104.943 84.3683 105.055 84.8406L106.023 88.9049L116.948 95.4571Z" fill="#7CC9F2"/>
<path fill-rule="evenodd" clip-rule="evenodd" d="M105.984 97.0206L105.027 101.038C104.914 101.51 104.463 101.785 104.011 101.649C103.562 101.515 103.29 101.023 103.402 100.551L103.953 98.2386L100.048 100.825C99.6497 101.064 99.136 100.913 98.8965 100.482C98.6585 100.054 98.7838 99.5159 99.1859 99.2747L103.114 96.6745L100.875 96.0029C100.425 95.868 100.15 95.3802 100.263 94.906C100.375 94.4352 100.83 94.1627 101.281 94.2977L105.145 95.4566L116.044 88.9199L117.014 84.8508C117.126 84.3781 117.581 84.1048 118.03 84.2393C118.481 84.3748 118.751 84.8657 118.638 85.338L118.075 87.7019L122.024 85.0897C122.421 84.8511 122.935 85.0017 123.175 85.4328C123.413 85.8609 123.287 86.3987 122.885 86.6399L118.94 89.2504L121.188 89.9245C121.638 90.0595 121.911 90.5505 121.799 91.0214C121.686 91.4955 121.231 91.7646 120.781 91.6297L116.909 90.4684L105.984 97.0206Z" fill="#7CC9F2"/>
<path fill-rule="evenodd" clip-rule="evenodd" d="M89.9342 128.424L87.0511 125.554C86.7122 125.217 86.709 124.673 87.0493 124.334C87.3872 123.998 87.9356 123.999 88.2749 124.336L89.9342 125.988V120.864C89.9342 120.387 90.3183 120 90.7996 120C91.2775 120 91.6649 120.382 91.6649 120.864V126.015L93.352 124.336C93.6909 123.999 94.2373 123.996 94.5776 124.334C94.9155 124.671 94.915 125.217 94.5758 125.554L91.6649 128.451V141.525L94.5853 144.431C94.9245 144.769 94.925 145.315 94.5871 145.651C94.2468 145.99 93.7004 145.986 93.3615 145.649L91.6649 143.961V149.136C91.6649 149.613 91.2808 150 90.7996 150C90.3217 150 89.9342 149.618 89.9342 149.136V143.964L88.2411 145.649C87.9019 145.987 87.3535 145.987 87.0155 145.651C86.6752 145.312 86.6784 144.768 87.0173 144.431L89.9342 141.528V128.424Z" fill="#7CC9F2"/>
<path fill-rule="evenodd" clip-rule="evenodd" d="M96.6272 137.457L100.455 136.309C100.905 136.174 101.36 136.443 101.473 136.918C101.585 137.388 101.311 137.879 100.861 138.014L98.6581 138.675L102.563 141.261C102.961 141.5 103.092 142.038 102.853 142.469C102.615 142.897 102.104 143.053 101.702 142.812L97.7735 140.212L98.3334 142.562C98.4459 143.034 98.1765 143.525 97.7248 143.661C97.2761 143.795 96.8213 143.522 96.7087 143.049L95.7426 138.994L84.8434 132.457L80.9663 133.619C80.5159 133.755 80.0607 133.482 79.9485 133.011C79.8355 132.537 80.1102 132.049 80.5601 131.914L82.8125 131.239L78.8641 128.627C78.4663 128.388 78.335 127.851 78.5746 127.42C78.8125 126.991 79.3235 126.835 79.7257 127.076L83.6713 129.687L83.1093 127.328C82.9967 126.855 83.2693 126.364 83.718 126.229C84.1698 126.094 84.6215 126.368 84.734 126.841L85.7021 130.905L96.6272 137.457Z" fill="#7CC9F2"/>
<path fill-rule="evenodd" clip-rule="evenodd" d="M85.6625 139.021L84.7056 143.038C84.5931 143.51 84.1413 143.785 83.6895 143.649C83.2409 143.515 82.9683 143.023 83.0809 142.551L83.6316 140.239L79.7263 142.825C79.3285 143.064 78.8148 142.913 78.5752 142.482C78.3372 142.054 78.4625 141.516 78.8646 141.275L82.793 138.675L80.5532 138.003C80.1033 137.868 79.8286 137.38 79.9416 136.906C80.0537 136.435 80.509 136.163 80.9594 136.298L84.8238 137.457L95.7231 130.92L96.6923 126.851C96.8049 126.378 97.2597 126.105 97.7084 126.239C98.1601 126.375 98.4295 126.866 98.317 127.338L97.7539 129.702L101.702 127.09C102.1 126.851 102.614 127.002 102.853 127.433C103.091 127.861 102.966 128.399 102.564 128.64L98.6184 131.25L100.866 131.924C101.317 132.06 101.59 132.551 101.478 133.021C101.365 133.496 100.91 133.765 100.46 133.63L96.5875 132.468L85.6625 139.021Z" fill="#7CC9F2"/>
<path fill-rule="evenodd" clip-rule="evenodd" d="M40.5826 116.424L37.6994 113.554C37.3605 113.217 37.3573 112.673 37.6976 112.334C38.0355 111.998 38.5839 111.999 38.9232 112.336L40.5826 113.988V108.864C40.5826 108.387 40.9667 108 41.4479 108C41.9258 108 42.3132 108.382 42.3132 108.864V114.015L44.0003 112.336C44.3392 111.999 44.8856 111.996 45.2259 112.334C45.5638 112.671 45.5633 113.217 45.2241 113.554L42.3132 116.451V129.525L45.2336 132.431C45.5728 132.769 45.5733 133.315 45.2354 133.651C44.8951 133.99 44.3487 133.986 44.0098 133.649L42.3132 131.961V137.136C42.3132 137.613 41.9291 138 41.4479 138C40.97 138 40.5826 137.618 40.5826 137.136V131.964L38.8894 133.649C38.5502 133.987 38.0018 133.987 37.6638 133.651C37.3236 133.312 37.3267 132.768 37.6656 132.431L40.5826 129.528V116.424Z" fill="#7CC9F2"/>
<path fill-rule="evenodd" clip-rule="evenodd" d="M47.2755 125.457L51.1032 124.309C51.5532 124.174 52.0081 124.443 52.121 124.918C52.2332 125.388 51.9597 125.879 51.5094 126.014L49.3064 126.675L53.2118 129.261C53.6096 129.5 53.7408 130.038 53.5012 130.469C53.2633 130.897 52.7523 131.053 52.3501 130.812L48.4218 128.212L48.9817 130.562C49.0942 131.034 48.8248 131.525 48.3731 131.661C47.9244 131.795 47.4696 131.522 47.357 131.049L46.3909 126.994L35.4917 120.457L31.6146 121.619C31.1643 121.755 30.709 121.482 30.5968 121.011C30.4839 120.537 30.7585 120.049 31.2084 119.914L33.4608 119.239L29.5124 116.627C29.1146 116.388 28.9833 115.851 29.2229 115.42C29.4608 114.991 29.9719 114.835 30.374 115.076L34.3196 117.687L33.7576 115.328C33.645 114.855 33.9177 114.364 34.3663 114.229C34.8181 114.094 35.2698 114.368 35.3823 114.841L36.3505 118.905L47.2755 125.457Z" fill="#7CC9F2"/>
<path fill-rule="evenodd" clip-rule="evenodd" d="M36.3108 127.021L35.3539 131.038C35.2414 131.51 34.7896 131.785 34.3379 131.649C33.8892 131.515 33.6166 131.023 33.7292 130.551L34.2799 128.239L30.3746 130.825C29.9768 131.064 29.4631 130.913 29.2235 130.482C28.9855 130.054 29.1108 129.516 29.513 129.275L33.4413 126.675L31.2015 126.003C30.7516 125.868 30.477 125.38 30.5899 124.906C30.7021 124.435 31.1573 124.163 31.6077 124.298L35.4721 125.457L46.3714 118.92L47.3407 114.851C47.4533 114.378 47.908 114.105 48.3567 114.239C48.8085 114.375 49.0778 114.866 48.9654 115.338L48.4023 117.702L52.3507 115.09C52.7485 114.851 53.2622 115.002 53.5018 115.433C53.7397 115.861 53.6145 116.399 53.2123 116.64L49.2667 119.25L51.5145 119.924C51.9649 120.06 52.2383 120.551 52.1262 121.021C52.0132 121.496 51.5583 121.765 51.1084 121.63L47.2359 120.468L36.3108 127.021Z" fill="#7CC9F2"/>
<path fill-rule="evenodd" clip-rule="evenodd" d="M47.8402 77.4237L44.957 74.5542C44.6181 74.2169 44.6149 73.6731 44.9552 73.3345C45.2932 72.9981 45.8416 72.9986 46.1808 73.3362L47.8402 74.9878V69.864C47.8402 69.3868 48.2243 69 48.7055 69C49.1834 69 49.5709 69.3816 49.5709 69.864V75.0153L51.2579 73.3362C51.5969 72.9989 52.1432 72.9958 52.4835 73.3345C52.8214 73.6708 52.8209 74.2166 52.4817 74.5542L49.5709 77.4513V90.5246L52.4912 93.4311C52.8304 93.7687 52.8309 94.3145 52.493 94.6509C52.1527 94.9896 51.6064 94.9864 51.2674 94.6491L49.5709 92.9606V98.136C49.5709 98.6132 49.1868 99 48.7055 99C48.2276 99 47.8402 98.6184 47.8402 98.136V92.964L46.147 94.6491C45.8078 94.9867 45.2594 94.9872 44.9215 94.6509C44.5812 94.3122 44.5843 93.7684 44.9233 93.4311L47.8402 90.528V77.4237Z" fill="#7CC9F2"/>
<path fill-rule="evenodd" clip-rule="evenodd" d="M54.5331 86.4571L58.3608 85.3093C58.8108 85.1743 59.2657 85.4434 59.3787 85.9176C59.4908 86.3884 59.2174 86.8794 58.767 87.0145L56.564 87.6751L60.4694 90.2615C60.8672 90.5001 60.9984 91.0375 60.7589 91.4686C60.5209 91.8967 60.0099 92.0529 59.6078 91.8117L55.6794 89.2115L56.2394 91.5622C56.3519 92.0345 56.0825 92.5254 55.6307 92.6609C55.182 92.7954 54.7273 92.5221 54.6147 92.0494L53.6486 87.9935L42.7493 81.4569L38.8722 82.6195C38.4219 82.7545 37.9666 82.4821 37.8544 82.0112C37.7415 81.537 38.0161 81.0492 38.4661 80.9143L40.7184 80.2389L36.77 77.6266C36.3722 77.3881 36.2409 76.8506 36.4805 76.4195C36.7185 75.9915 37.2295 75.8352 37.6316 76.0764L41.5772 78.6869L41.0153 76.3278C40.9027 75.8551 41.1753 75.3636 41.6239 75.2291C42.0757 75.0936 42.5275 75.3683 42.64 75.8406L43.6081 79.9049L54.5331 86.4571Z" fill="#7CC9F2"/>
<path fill-rule="evenodd" clip-rule="evenodd" d="M43.5684 88.0206L42.6115 92.0379C42.499 92.5101 42.0473 92.7848 41.5955 92.6494C41.1468 92.5148 40.8742 92.0234 40.9868 91.5507L41.5376 89.2386L37.6322 91.825C37.2344 92.0636 36.7207 91.9129 36.4811 91.4818C36.2432 91.0538 36.3684 90.5159 36.7706 90.2747L40.6989 87.6745L38.4592 87.0029C38.0092 86.868 37.7346 86.3802 37.8475 85.906C37.9597 85.4352 38.415 85.1627 38.8653 85.2977L42.7298 86.4566L53.629 79.9199L54.5983 75.8508C54.7109 75.3781 55.1657 75.1048 55.6143 75.2393C56.0661 75.3748 56.3355 75.8657 56.223 76.338L55.6599 78.7019L59.6083 76.0897C60.0061 75.8511 60.5198 76.0017 60.7594 76.4328C60.9974 76.8609 60.8721 77.3987 60.47 77.6399L56.5244 80.2504L58.7722 80.9245C59.2225 81.0595 59.496 81.5505 59.3838 82.0214C59.2709 82.4955 58.816 82.7646 58.366 82.6297L54.4935 81.4684L43.5684 88.0206Z" fill="#7CC9F2"/>
<path fill-rule="evenodd" clip-rule="evenodd" d="M78.3221 96.9237L75.4389 94.0542C75.1 93.7169 75.0968 93.1731 75.4371 92.8345C75.775 92.4981 76.3235 92.4986 76.6627 92.8362L78.3221 94.4878V89.364C78.3221 88.8868 78.7062 88.5 79.1874 88.5C79.6653 88.5 80.0527 88.8816 80.0527 89.364V94.5153L81.7398 92.8362C82.0787 92.4989 82.6251 92.4958 82.9654 92.8345C83.3033 93.1708 83.3028 93.7166 82.9636 94.0542L80.0527 96.9513V110.025L82.9731 112.931C83.3123 113.269 83.3128 113.815 82.9749 114.151C82.6346 114.49 82.0882 114.486 81.7493 114.149L80.0527 112.461V117.636C80.0527 118.113 79.6686 118.5 79.1874 118.5C78.7095 118.5 78.3221 118.118 78.3221 117.636V112.464L76.6289 114.149C76.2897 114.487 75.7413 114.487 75.4033 114.151C75.0631 113.812 75.0662 113.268 75.4051 112.931L78.3221 110.028V96.9237Z" fill="#7CC9F2"/>
<path fill-rule="evenodd" clip-rule="evenodd" d="M85.015 105.957L88.8427 104.809C89.2927 104.674 89.7476 104.943 89.8605 105.418C89.9727 105.888 89.6992 106.379 89.2489 106.514L87.0459 107.175L90.9513 109.761C91.3491 110 91.4803 110.538 91.2407 110.969C91.0028 111.397 90.4918 111.553 90.0896 111.312L86.1613 108.712L86.7212 111.062C86.8337 111.534 86.5643 112.025 86.1126 112.161C85.6639 112.295 85.2091 112.022 85.0965 111.549L84.1304 107.494L73.2312 100.957L69.3541 102.119C68.9038 102.255 68.4485 101.982 68.3363 101.511C68.2234 101.037 68.498 100.549 68.9479 100.414L71.2003 99.7389L67.2519 97.1266C66.8541 96.8881 66.7228 96.3506 66.9624 95.9195C67.2003 95.4915 67.7114 95.3352 68.1135 95.5764L72.0591 98.1869L71.4971 95.8278C71.3845 95.3551 71.6572 94.8636 72.1058 94.7291C72.5576 94.5936 73.0093 94.8683 73.1218 95.3406L74.09 99.4049L85.015 105.957Z" fill="#7CC9F2"/>
<path fill-rule="evenodd" clip-rule="evenodd" d="M74.0503 107.521L73.0934 111.538C72.9809 112.01 72.5291 112.285 72.0774 112.149C71.6287 112.015 71.3561 111.523 71.4687 111.051L72.0194 108.739L68.1141 111.325C67.7163 111.564 67.2026 111.413 66.963 110.982C66.725 110.554 66.8503 110.016 67.2525 109.775L71.1808 107.175L68.941 106.503C68.4911 106.368 68.2165 105.88 68.3294 105.406C68.4416 104.935 68.8968 104.663 69.3472 104.798L73.2116 105.957L84.1109 99.4199L85.0802 95.3508C85.1928 94.8781 85.6475 94.6048 86.0962 94.7393C86.548 94.8748 86.8173 95.3657 86.7049 95.838L86.1418 98.2019L90.0902 95.5897C90.488 95.3511 91.0017 95.5017 91.2413 95.9328C91.4792 96.3609 91.354 96.8987 90.9518 97.1399L87.0062 99.7504L89.254 100.424C89.7044 100.56 89.9778 101.051 89.8657 101.521C89.7527 101.996 89.2978 102.265 88.8479 102.13L84.9754 100.968L74.0503 107.521Z" fill="#7CC9F2"/>
</g>
<defs>
<clipPath id="clip0_35_1355">
<rect width="142.249" height="72" fill="white" transform="matrix(1 0 0 -1 7.33026 150)"/>
</clipPath>
</defs>
</svg>
