<svg width="152" height="150" viewBox="0 0 152 150" fill="none" xmlns="http://www.w3.org/2000/svg">
<path fill-rule="evenodd" clip-rule="evenodd" d="M109.538 86.4237L106.493 83.5542C106.135 83.2169 106.132 82.6731 106.491 82.3345C106.848 81.9981 107.427 81.9986 107.786 82.3362L109.538 83.9878V78.864C109.538 78.3868 109.944 78 110.453 78C110.957 78 111.367 78.3816 111.367 78.864V84.0153L113.149 82.3362C113.507 81.9989 114.084 81.9958 114.443 82.3345C114.8 82.6708 114.8 83.2166 114.441 83.5542L111.367 86.4513V99.5246L114.451 102.431C114.81 102.769 114.81 103.315 114.453 103.651C114.094 103.99 113.517 103.986 113.159 103.649L111.367 101.961V107.136C111.367 107.613 110.961 108 110.453 108C109.948 108 109.538 107.618 109.538 107.136V101.964L107.75 103.649C107.392 103.987 106.812 103.987 106.455 103.651C106.096 103.312 106.099 102.768 106.457 102.431L109.538 99.528V86.4237Z" fill="#7CC9F2"/>
<path fill-rule="evenodd" clip-rule="evenodd" d="M116.608 95.4571L120.652 94.3093C121.127 94.1743 121.607 94.4434 121.727 94.9176C121.845 95.3884 121.556 95.8794 121.081 96.0145L118.754 96.6751L122.879 99.2615C123.299 99.5001 123.438 100.038 123.185 100.469C122.933 100.897 122.394 101.053 121.969 100.812L117.819 98.2115L118.411 100.562C118.529 101.034 118.245 101.525 117.768 101.661C117.294 101.795 116.813 101.522 116.694 101.049L115.674 96.9935L104.161 90.4569L100.065 91.6195C99.5897 91.7545 99.1087 91.4821 98.9903 91.0112C98.871 90.537 99.1611 90.0492 99.6364 89.9143L102.016 89.2389L97.8448 86.6266C97.4245 86.3881 97.2859 85.8506 97.539 85.4195C97.7903 84.9915 98.3301 84.8352 98.7549 85.0764L102.923 87.6869L102.329 85.3278C102.21 84.8551 102.498 84.3636 102.972 84.2291C103.449 84.0936 103.926 84.3683 104.045 84.8406L105.068 88.9049L116.608 95.4571Z" fill="#7CC9F2"/>
<path fill-rule="evenodd" clip-rule="evenodd" d="M105.026 97.0206L104.015 101.038C103.896 101.51 103.419 101.785 102.942 101.649C102.468 101.515 102.18 101.023 102.299 100.551L102.881 98.2386L98.7555 100.825C98.3353 101.064 97.7927 100.913 97.5396 100.482C97.2883 100.054 97.4206 99.5159 97.8454 99.2747L101.995 96.6745L99.6291 96.0029C99.1538 95.868 98.8637 95.3802 98.983 94.906C99.1014 94.4352 99.5824 94.1627 100.058 94.2977L104.14 95.4566L115.653 88.9199L116.677 84.8508C116.796 84.3781 117.277 84.1048 117.75 84.2393C118.228 84.3748 118.512 84.8657 118.393 85.338L117.799 87.7019L121.969 85.0897C122.39 84.8511 122.932 85.0017 123.185 85.4328C123.437 85.8609 123.304 86.3987 122.88 86.6399L118.712 89.2504L121.086 89.9245C121.562 90.0595 121.851 90.5505 121.732 91.0214C121.613 91.4955 121.132 91.7646 120.657 91.6297L116.566 90.4684L105.026 97.0206Z" fill="#7CC9F2"/>
<path fill-rule="evenodd" clip-rule="evenodd" d="M83.4728 128.424L80.4273 125.554C80.0693 125.217 80.0659 124.673 80.4254 124.334C80.7824 123.998 81.3616 123.999 81.72 124.336L83.4728 125.988V120.864C83.4728 120.387 83.8785 120 84.3869 120C84.8917 120 85.301 120.382 85.301 120.864V126.015L87.0831 124.336C87.4411 123.999 88.0182 123.996 88.3777 124.334C88.7346 124.671 88.7341 125.217 88.3758 125.554L85.301 128.451V141.525L88.3858 144.431C88.7441 144.769 88.7447 145.315 88.3877 145.651C88.0282 145.99 87.4511 145.986 87.0931 145.649L85.301 143.961V149.136C85.301 149.613 84.8953 150 84.3869 150C83.8821 150 83.4728 149.618 83.4728 149.136V143.964L81.6843 145.649C81.326 145.987 80.7467 145.987 80.3897 145.651C80.0303 145.312 80.0336 144.768 80.3916 144.431L83.4728 141.528V128.424Z" fill="#7CC9F2"/>
<path fill-rule="evenodd" clip-rule="evenodd" d="M90.5427 137.457L94.586 136.309C95.0613 136.174 95.5418 136.443 95.6612 136.918C95.7796 137.388 95.4908 137.879 95.0151 138.014L92.688 138.675L96.8133 141.261C97.2335 141.5 97.3722 142.038 97.1191 142.469C96.8678 142.897 96.3279 143.053 95.9032 142.812L91.7536 140.212L92.3451 142.562C92.4639 143.034 92.1793 143.525 91.7021 143.661C91.2282 143.795 90.7478 143.522 90.6289 143.049L89.6083 138.994L78.0952 132.457L73.9998 133.619C73.5241 133.755 73.0431 133.482 72.9247 133.011C72.8053 132.537 73.0954 132.049 73.5707 131.914L75.95 131.239L71.7791 128.627C71.3589 128.388 71.2203 127.851 71.4734 127.42C71.7247 126.991 72.2645 126.835 72.6893 127.076L76.8571 129.687L76.2635 127.328C76.1446 126.855 76.4325 126.364 76.9065 126.229C77.3837 126.094 77.8609 126.368 77.9797 126.841L79.0024 130.905L90.5427 137.457Z" fill="#7CC9F2"/>
<path fill-rule="evenodd" clip-rule="evenodd" d="M78.9605 139.021L77.9497 143.038C77.8308 143.51 77.3536 143.785 76.8764 143.649C76.4025 143.515 76.1145 143.023 76.2335 142.551L76.8152 140.239L72.6899 142.825C72.2697 143.064 71.7271 142.913 71.474 142.482C71.2226 142.054 71.355 141.516 71.7798 141.275L75.9293 138.675L73.5634 138.003C73.0881 137.868 72.7981 137.38 72.9174 136.906C73.0358 136.435 73.5168 136.163 73.9925 136.298L78.0746 137.457L89.5877 130.92L90.6116 126.851C90.7305 126.378 91.2109 126.105 91.6848 126.239C92.162 126.375 92.4466 126.866 92.3278 127.338L91.7329 129.702L95.9038 127.09C96.324 126.851 96.8666 127.002 97.1197 127.433C97.371 127.861 97.2387 128.399 96.8139 128.64L92.6461 131.25L95.0205 131.924C95.4963 132.06 95.7851 132.551 95.6666 133.021C95.5473 133.496 95.0668 133.765 94.5915 133.63L90.5009 132.468L78.9605 139.021Z" fill="#7CC9F2"/>
<path fill-rule="evenodd" clip-rule="evenodd" d="M131.004 116.424L127.959 113.554C127.601 113.217 127.597 112.673 127.957 112.334C128.314 111.998 128.893 111.999 129.251 112.336L131.004 113.988V108.864C131.004 108.387 131.41 108 131.918 108C132.423 108 132.832 108.382 132.832 108.864V114.015L134.614 112.336C134.973 111.999 135.55 111.996 135.909 112.334C136.266 112.671 136.266 113.217 135.907 113.554L132.832 116.451V129.525L135.917 132.431C136.276 132.769 136.276 133.315 135.919 133.651C135.56 133.99 134.983 133.986 134.625 133.649L132.832 131.961V137.136C132.832 137.613 132.427 138 131.918 138C131.413 138 131.004 137.618 131.004 137.136V131.964L129.216 133.649C128.857 133.987 128.278 133.987 127.921 133.651C127.562 133.312 127.565 132.768 127.923 132.431L131.004 129.528V116.424Z" fill="#7CC9F2"/>
<path fill-rule="evenodd" clip-rule="evenodd" d="M138.074 125.457L142.117 124.309C142.593 124.174 143.073 124.443 143.193 124.918C143.311 125.388 143.022 125.879 142.546 126.014L140.219 126.675L144.345 129.261C144.765 129.5 144.904 130.038 144.651 130.469C144.399 130.897 143.859 131.053 143.435 130.812L139.285 128.212L139.876 130.562C139.995 131.034 139.711 131.525 139.234 131.661C138.76 131.795 138.279 131.522 138.16 131.049L137.14 126.994L125.627 120.457L121.531 121.619C121.055 121.755 120.575 121.482 120.456 121.011C120.337 120.537 120.627 120.049 121.102 119.914L123.481 119.239L119.311 116.627C118.89 116.388 118.752 115.851 119.005 115.42C119.256 114.991 119.796 114.835 120.221 115.076L124.389 117.687L123.795 115.328C123.676 114.855 123.964 114.364 124.438 114.229C124.915 114.094 125.392 114.368 125.511 114.841L126.534 118.905L138.074 125.457Z" fill="#7CC9F2"/>
<path fill-rule="evenodd" clip-rule="evenodd" d="M126.492 127.021L125.481 131.038C125.362 131.51 124.885 131.785 124.408 131.649C123.934 131.515 123.646 131.023 123.765 130.551L124.347 128.239L120.221 130.825C119.801 131.064 119.258 130.913 119.005 130.482C118.754 130.054 118.886 129.516 119.311 129.275L123.461 126.675L121.095 126.003C120.62 125.868 120.329 125.38 120.449 124.906C120.567 124.435 121.048 124.163 121.524 124.298L125.606 125.457L137.119 118.92L138.143 114.851C138.262 114.378 138.742 114.105 139.216 114.239C139.693 114.375 139.978 114.866 139.859 115.338L139.264 117.702L143.435 115.09C143.855 114.851 144.398 115.002 144.651 115.433C144.902 115.861 144.77 116.399 144.345 116.64L140.178 119.25L142.552 119.924C143.028 120.06 143.317 120.551 143.198 121.021C143.079 121.496 142.598 121.765 142.123 121.63L138.032 120.468L126.492 127.021Z" fill="#7CC9F2"/>
<path fill-rule="evenodd" clip-rule="evenodd" d="M35.9414 116.424L32.8958 113.554C32.5378 113.217 32.5345 112.673 32.894 112.334C33.2509 111.998 33.8302 111.999 34.1885 112.336L35.9414 113.988V108.864C35.9414 108.387 36.3471 108 36.8555 108C37.3603 108 37.7695 108.382 37.7695 108.864V114.015L39.5516 112.336C39.9096 111.999 40.4868 111.996 40.8462 112.334C41.2032 112.671 41.2027 113.217 40.8443 113.554L37.7695 116.451V129.525L40.8544 132.431C41.2127 132.769 41.2132 133.315 40.8563 133.651C40.4968 133.99 39.9197 133.986 39.5617 133.649L37.7695 131.961V137.136C37.7695 137.613 37.3638 138 36.8555 138C36.3506 138 35.9414 137.618 35.9414 137.136V131.964L34.1529 133.649C33.7945 133.987 33.2153 133.987 32.8583 133.651C32.4988 133.312 32.5022 132.768 32.8602 132.431L35.9414 129.528V116.424Z" fill="#7CC9F2"/>
<path fill-rule="evenodd" clip-rule="evenodd" d="M43.0113 125.457L47.0546 124.309C47.5299 124.174 48.0104 124.443 48.1297 124.918C48.2482 125.388 47.9594 125.879 47.4836 126.014L45.1566 126.675L49.2819 129.261C49.7021 129.5 49.8407 130.038 49.5877 130.469C49.3363 130.897 48.7965 131.053 48.3717 130.812L44.2221 128.212L44.8136 130.562C44.9324 131.034 44.6479 131.525 44.1707 131.661C43.6968 131.795 43.2164 131.522 43.0974 131.049L42.0769 126.994L30.5638 120.457L26.4684 121.619C25.9926 121.755 25.5117 121.482 25.3932 121.011C25.2739 120.537 25.564 120.049 26.0393 119.914L28.4185 119.239L24.2477 116.627C23.8275 116.388 23.6888 115.851 23.9419 115.42C24.1933 114.991 24.7331 114.835 25.1579 115.076L29.3257 117.687L28.7321 115.328C28.6131 114.855 28.9011 114.364 29.375 114.229C29.8522 114.094 30.3294 114.368 30.4483 114.841L31.4709 118.905L43.0113 125.457Z" fill="#7CC9F2"/>
<path fill-rule="evenodd" clip-rule="evenodd" d="M31.429 127.021L30.4182 131.038C30.2994 131.51 29.8222 131.785 29.345 131.649C28.8711 131.515 28.5831 131.023 28.702 130.551L29.2838 128.239L25.1585 130.825C24.7383 131.064 24.1956 130.913 23.9425 130.482C23.6912 130.054 23.8235 129.516 24.2483 129.275L28.3979 126.675L26.032 126.003C25.5567 125.868 25.2666 125.38 25.3859 124.906C25.5044 124.435 25.9853 124.163 26.4611 124.298L30.5431 125.457L42.0563 118.92L43.0801 114.851C43.1991 114.378 43.6795 114.105 44.1534 114.239C44.6306 114.375 44.9151 114.866 44.7963 115.338L44.2015 117.702L48.3723 115.09C48.7925 114.851 49.3352 115.002 49.5883 115.433C49.8396 115.861 49.7073 116.399 49.2825 116.64L45.1147 119.25L47.4891 119.924C47.9648 120.06 48.2537 120.551 48.1352 121.021C48.0159 121.496 47.5353 121.765 47.06 121.63L42.9694 120.468L31.429 127.021Z" fill="#7CC9F2"/>
<path fill-rule="evenodd" clip-rule="evenodd" d="M75.8064 96.9237L72.7609 94.0542C72.4029 93.7169 72.3995 93.1731 72.759 92.8345C73.116 92.4981 73.6953 92.4986 74.0536 92.8362L75.8064 94.4878V89.364C75.8064 88.8868 76.2122 88.5 76.7205 88.5C77.2254 88.5 77.6346 88.8816 77.6346 89.364V94.5153L79.4167 92.8362C79.7747 92.4989 80.3518 92.4958 80.7113 92.8345C81.0682 93.1708 81.0677 93.7166 80.7094 94.0542L77.6346 96.9513V110.025L80.7194 112.931C81.0778 113.269 81.0783 113.815 80.7213 114.151C80.3619 114.49 79.7847 114.486 79.4267 114.149L77.6346 112.461V117.636C77.6346 118.113 77.2289 118.5 76.7205 118.5C76.2157 118.5 75.8064 118.118 75.8064 117.636V112.464L74.0179 114.149C73.6596 114.487 73.0803 114.487 72.7233 114.151C72.3639 113.812 72.3672 113.268 72.7252 112.931L75.8064 110.028V96.9237Z" fill="#7CC9F2"/>
<path fill-rule="evenodd" clip-rule="evenodd" d="M82.8764 105.957L86.9196 104.809C87.3949 104.674 87.8755 104.943 87.9948 105.418C88.1132 105.888 87.8244 106.379 87.3487 106.514L85.0216 107.175L89.1469 109.761C89.5671 110 89.7058 110.538 89.4527 110.969C89.2014 111.397 88.6616 111.553 88.2368 111.312L84.0872 108.712L84.6787 111.062C84.7975 111.534 84.5129 112.025 84.0357 112.161C83.5618 112.295 83.0814 112.022 82.9625 111.549L81.9419 107.494L70.4288 100.957L66.3334 102.119C65.8577 102.255 65.3768 101.982 65.2583 101.511C65.139 101.037 65.4291 100.549 65.9044 100.414L68.2836 99.7389L64.1128 97.1266C63.6926 96.8881 63.5539 96.3506 63.807 95.9195C64.0583 95.4915 64.5981 95.3352 65.0229 95.5764L69.1907 98.1869L68.5971 95.8278C68.4782 95.3551 68.7662 94.8636 69.2401 94.7291C69.7173 94.5936 70.1945 94.8683 70.3133 95.3406L71.336 99.4049L82.8764 105.957Z" fill="#7CC9F2"/>
<path fill-rule="evenodd" clip-rule="evenodd" d="M71.2941 107.521L70.2833 111.538C70.1644 112.01 69.6872 112.285 69.21 112.149C68.7361 112.015 68.4481 111.523 68.5671 111.051L69.1488 108.739L65.0235 111.325C64.6033 111.564 64.0607 111.413 63.8076 110.982C63.5563 110.554 63.6886 110.016 64.1134 109.775L68.263 107.175L65.8971 106.503C65.4218 106.368 65.1317 105.88 65.251 105.406C65.3695 104.935 65.8504 104.663 66.3261 104.798L70.4082 105.957L81.9213 99.4199L82.9452 95.3508C83.0641 94.8781 83.5445 94.6048 84.0184 94.7393C84.4956 94.8748 84.7802 95.3657 84.6614 95.838L84.0666 98.2019L88.2374 95.5897C88.6576 95.3511 89.2002 95.5017 89.4533 95.9328C89.7047 96.3609 89.5723 96.8987 89.1475 97.1399L84.9797 99.7504L87.3541 100.424C87.8299 100.56 88.1187 101.051 88.0002 101.521C87.8809 101.996 87.4004 102.265 86.9251 102.13L82.8345 100.968L71.2941 107.521Z" fill="#7CC9F2"/>
<path d="M135.554 46.9707C135.077 39.5371 131.715 32.5604 126.152 27.46C120.59 22.3595 113.245 19.5186 105.612 19.5153C104.208 19.5153 102.806 19.61 101.415 19.7988C98.25 13.8427 93.4721 8.84764 87.6007 5.35684C81.7293 1.86604 74.9893 0.0132425 68.114 0C67.7283 0 67.312 0.00243997 67.0461 0.0243947C59.4727 0.211029 52.1369 2.64269 46.014 6.99608C39.8912 11.3495 35.2713 17.4183 32.7687 24.3958C27.5273 24.4908 22.533 26.5877 18.8585 30.2363C15.184 33.8848 13.1223 38.7939 13.1162 43.9094C13.1166 44.6562 13.1615 45.4023 13.2505 46.1439C9.47532 47.9615 6.29362 50.7692 4.06213 54.2524C1.83064 57.7355 0.637592 61.7564 0.616754 65.8642C0.607979 69.7293 1.66004 73.5263 3.66363 76.8605C3.88431 77.2263 4.19906 77.5295 4.57671 77.7401C4.95436 77.9507 5.38183 78.0614 5.81679 78.0612H34.0154C34.6109 78.0612 35.1869 77.8538 35.6396 77.4763C36.0923 77.0987 36.392 76.5759 36.4848 76.0019C37.2063 71.5572 39.5293 67.5096 43.036 64.587C46.5428 61.6645 51.0031 60.0588 55.6148 60.0588C60.2264 60.0588 64.6868 61.6645 68.1935 64.587C71.7003 67.5096 74.0233 71.5572 74.7447 76.0019C74.8375 76.5759 75.1373 77.0987 75.59 77.4763C76.0427 77.8538 76.6186 78.0612 77.2141 78.0612H105.033C105.569 76.5 105.416 76.5 105.646 75.75C105.845 75 105.646 75.6323 108.145 68.25C108.912 64.5 108.145 68.25 108.912 64.5C109.236 62.9158 108.912 64.5 110.445 60.75C117.345 56.25 139.851 48.053 135.554 46.9707Z" fill="#9CD5F2"/>
<path d="M80.7518 78.2576C80.7058 77.3866 80.6159 76.5185 80.4824 75.6567C79.5848 69.9261 76.6926 64.7072 72.3262 60.9392C67.9598 57.1711 62.4059 55.1013 56.6638 55.102C50.9216 55.1028 45.3682 57.1741 41.0028 60.9433C36.6374 64.7125 33.7465 69.9321 32.8503 75.663C32.7178 76.5227 32.6284 77.3887 32.5822 78.2576C28.7696 79.6491 25.474 82.1942 23.1444 85.5462C20.8148 88.8983 19.5643 92.8944 19.5632 96.9904C19.5632 97.6533 19.8238 98.289 20.2877 98.7577C20.7516 99.2264 21.3808 99.4898 22.0368 99.4898H91.2972C91.9532 99.4898 92.5824 99.2264 93.0463 98.7577C93.5102 98.289 93.7708 97.6533 93.7708 96.9904C93.7697 92.8944 92.5192 88.8983 90.1896 85.5462C87.86 82.1942 84.5645 79.6491 80.7518 78.2576Z" fill="#B2EBF2"/>
<path fill-rule="evenodd" clip-rule="evenodd" d="M118.103 36C117.161 36 116.337 36.6187 116.092 37.5087L105.151 77.3777C104.796 78.6716 105.792 79.9428 107.162 79.9428H121.85C123.093 79.9428 124.059 81.0005 123.919 82.2084L119.989 116.229C119.729 118.482 122.862 119.403 123.914 117.382L151.252 64.865C151.958 63.5098 150.951 61.9037 149.397 61.9037H137.39C135.913 61.9037 134.906 60.4421 135.46 59.1031L143.853 38.8006C144.407 37.4616 143.399 36 141.923 36H118.103Z" fill="#FFAC33"/>
</svg>
