<svg width="151" height="150" viewBox="0 0 151 150" fill="none" xmlns="http://www.w3.org/2000/svg">
<path d="M27.1749 104.244C26.9408 104.143 26.6884 104.088 26.4323 104.082C26.1763 104.076 25.9215 104.119 25.6825 104.209C25.4436 104.299 25.2252 104.434 25.0398 104.606C24.8544 104.777 24.7057 104.983 24.6022 105.211L14.9935 126.254C14.7841 126.714 14.7712 127.236 14.9577 127.706C15.1441 128.175 15.5145 128.553 15.9875 128.757C16.4605 128.96 16.9972 128.973 17.4797 128.792C17.9622 128.61 18.3509 128.25 18.5602 127.79L28.1884 106.728C28.3908 106.268 28.3978 105.748 28.208 105.283C28.0181 104.818 27.6467 104.444 27.1749 104.244ZM41.6173 104.244C41.3831 104.143 41.1307 104.088 40.8747 104.082C40.6186 104.076 40.3638 104.119 40.1248 104.209C39.8859 104.299 39.6675 104.434 39.4821 104.606C39.2968 104.777 39.1481 104.983 39.0445 105.211L19.8466 147.335C19.7429 147.563 19.6864 147.808 19.6802 148.058C19.6741 148.307 19.7184 148.554 19.8107 148.787C19.9031 149.019 20.0415 149.231 20.2182 149.412C20.3949 149.592 20.6064 149.737 20.8406 149.838C21.0748 149.939 21.3271 149.993 21.5831 149.999C21.8392 150.005 22.0939 149.962 22.3328 149.873C22.5717 149.783 22.7901 149.648 22.9755 149.476C23.1609 149.304 23.3096 149.099 23.4133 148.871L42.6697 106.747C42.7718 106.516 42.8255 106.267 42.8278 106.015C42.83 105.763 42.7807 105.514 42.6827 105.281C42.5848 105.048 42.4401 104.836 42.2572 104.658C42.0742 104.48 41.8567 104.34 41.6173 104.244ZM70.5214 104.244C70.2872 104.143 70.0349 104.088 69.7788 104.082C69.5227 104.076 69.2679 104.119 69.029 104.209C68.7901 104.299 68.5716 104.434 68.3863 104.606C68.2009 104.777 68.0522 104.983 67.9487 105.211L48.6728 147.335C48.5691 147.563 48.5126 147.808 48.5064 148.058C48.5003 148.307 48.5446 148.554 48.6369 148.787C48.7292 149.019 48.8677 149.231 49.0444 149.412C49.2211 149.592 49.4326 149.737 49.6668 149.838C49.901 149.939 50.1533 149.993 50.4093 149.999C50.6653 150.005 50.9201 149.962 51.159 149.873C51.3979 149.783 51.6163 149.648 51.8017 149.476C51.987 149.304 52.1358 149.099 52.2395 148.871L71.4959 106.747C71.7068 106.289 71.7227 105.769 71.5401 105.3C71.3574 104.831 70.9911 104.451 70.5214 104.244ZM56.0596 104.244C55.8254 104.143 55.5731 104.088 55.317 104.082C55.0609 104.076 54.8061 104.119 54.5672 104.209C54.3282 104.299 54.1098 104.434 53.9245 104.606C53.7391 104.777 53.5904 104.983 53.4869 105.211L43.8586 126.254C43.6493 126.714 43.6364 127.236 43.8228 127.706C44.0092 128.175 44.3797 128.553 44.8527 128.757C45.3256 128.96 45.8624 128.973 46.3449 128.792C46.8274 128.61 47.216 128.25 47.4254 127.79L57.0536 106.728C57.2572 106.27 57.267 105.752 57.0809 105.288C56.8949 104.823 56.5279 104.448 56.0596 104.244Z" fill="#B3E5FC"/>
<path d="M81.3676 79.0886C81.1292 79.0215 80.8747 78.9915 80.6188 79.0006C80.3628 79.0097 80.1104 79.0575 79.8759 79.1414C79.6414 79.2253 79.4295 79.3436 79.2522 79.4895C79.075 79.6355 78.9359 79.8062 78.8429 79.9919L70.2076 97.1441C70.0196 97.519 70.0305 97.9324 70.238 98.2932C70.4455 98.6541 70.8326 98.9329 71.3141 99.0683C71.7956 99.2036 72.3321 99.1845 72.8056 99.0151C73.279 98.8457 73.6507 98.5399 73.8387 98.1649L82.4926 80.9968C82.6737 80.622 82.6571 80.2111 82.4463 79.8536C82.2355 79.4961 81.8478 79.2211 81.3676 79.0886ZM95.7874 78.3077C95.549 78.2405 95.2946 78.2106 95.0386 78.2197C94.7826 78.2287 94.5302 78.2766 94.2957 78.3605C94.0613 78.4444 93.8493 78.5627 93.6721 78.7086C93.4948 78.8545 93.3557 79.0253 93.2627 79.211L76.0134 113.544C75.9203 113.73 75.875 113.927 75.8802 114.124C75.8854 114.321 75.941 114.515 76.0437 114.693C76.1465 114.872 76.2944 115.032 76.479 115.165C76.6636 115.298 76.8814 115.401 77.1198 115.468C77.3582 115.535 77.6127 115.565 77.8686 115.556C78.1245 115.547 78.3769 115.499 78.6113 115.415C78.8457 115.331 79.0577 115.213 79.2349 115.067C79.4122 114.921 79.5514 114.751 79.6445 114.565L96.9522 80.2287C97.0436 80.0404 97.086 79.8409 97.0767 79.6419C97.0675 79.4428 97.0069 79.2482 96.8985 79.0694C96.79 78.8906 96.636 78.7312 96.4452 78.6004C96.2545 78.4696 96.0308 78.3701 95.7874 78.3077ZM124.647 76.7447C124.408 76.6776 124.154 76.6477 123.898 76.6567C123.642 76.6658 123.389 76.7136 123.155 76.7975C122.92 76.8814 122.708 76.9997 122.531 77.1457C122.354 77.2916 122.215 77.4623 122.122 77.6481L104.795 111.985C104.702 112.171 104.656 112.368 104.662 112.565C104.667 112.763 104.722 112.956 104.825 113.135C104.928 113.313 105.076 113.474 105.26 113.607C105.445 113.74 105.663 113.843 105.901 113.91C106.14 113.977 106.394 114.006 106.65 113.997C106.906 113.988 107.158 113.94 107.393 113.857C107.627 113.773 107.839 113.654 108.016 113.509C108.193 113.363 108.333 113.192 108.426 113.006L125.734 78.67C125.923 78.2968 125.915 77.8847 125.712 77.5239C125.508 77.163 125.125 76.8829 124.647 76.7447ZM110.207 77.5267C109.969 77.4596 109.714 77.4297 109.458 77.4387C109.202 77.4478 108.95 77.4956 108.716 77.5795C108.481 77.6634 108.269 77.7817 108.092 77.9277C107.915 78.0736 107.776 78.2443 107.683 78.4301L99.0278 95.5833C98.8398 95.9582 98.8507 96.3716 99.0582 96.7324C99.2657 97.0933 99.6528 97.3721 100.134 97.5074C100.616 97.6428 101.152 97.6237 101.626 97.4543C102.099 97.2849 102.471 96.9791 102.659 96.6041L111.313 79.4359C111.495 79.063 111.482 78.6534 111.275 78.296C111.068 77.9386 110.684 77.6622 110.207 77.5267Z" fill="#B3E5FC"/>
<path d="M135.554 46.9707C135.077 39.5371 131.715 32.5604 126.152 27.46C120.59 22.3595 113.245 19.5186 105.613 19.5153C104.208 19.5153 102.806 19.61 101.415 19.7988C98.25 13.8427 93.4721 8.84764 87.6007 5.35684C81.7293 1.86604 74.9894 0.0132425 68.114 0C67.7283 0 67.3121 0.00243997 67.0461 0.0243947C59.4727 0.211029 52.1369 2.64269 46.014 6.99608C39.8912 11.3495 35.2713 17.4183 32.7687 24.3958C27.5273 24.4908 22.533 26.5877 18.8585 30.2363C15.184 33.8848 13.1223 38.7939 13.1162 43.9094C13.1166 44.6562 13.1615 45.4023 13.2505 46.1439C9.47532 47.9615 6.29362 50.7692 4.06213 54.2524C1.83064 57.7355 0.637592 61.7564 0.616754 65.8642C0.607979 69.7293 1.66004 73.5263 3.66363 76.8605C3.88431 77.2263 4.19906 77.5295 4.57671 77.7401C4.95436 77.9507 5.38183 78.0614 5.81679 78.0612H34.0154C34.6109 78.0612 35.1869 77.8538 35.6396 77.4763C36.0923 77.0987 36.392 76.5759 36.4848 76.0019C37.2063 71.5572 39.5293 67.5096 43.036 64.587C46.5428 61.6645 51.0031 60.0588 55.6148 60.0588C60.2264 60.0588 64.6868 61.6645 68.1935 64.587C71.7003 67.5096 74.0233 71.5572 74.7448 76.0019C74.8375 76.5759 75.1373 77.0987 75.59 77.4763C76.0427 77.8538 76.6186 78.0612 77.2142 78.0612H144.961C145.364 78.0614 145.76 77.9668 146.116 77.7856C146.473 77.6043 146.78 77.3417 147.01 77.0201C149.359 73.7522 150.617 69.856 150.611 65.8642C150.594 61.5339 149.107 57.331 146.383 53.9126C143.659 50.4942 139.851 48.053 135.554 46.9707Z" fill="#355ABA"/>
<path d="M80.7518 78.2576C80.7058 77.3866 80.6159 76.5185 80.4824 75.6567C79.5848 69.9261 76.6926 64.7072 72.3262 60.9392C67.9598 57.1711 62.4059 55.1013 56.6638 55.102C50.9216 55.1028 45.3682 57.1741 41.0028 60.9433C36.6374 64.7125 33.7465 69.9321 32.8503 75.663C32.7178 76.5227 32.6284 77.3887 32.5822 78.2576C28.7696 79.6491 25.474 82.1942 23.1444 85.5462C20.8148 88.8983 19.5643 92.8944 19.5632 96.9904C19.5632 97.6533 19.8238 98.289 20.2877 98.7577C20.7516 99.2264 21.3808 99.4898 22.0368 99.4898H91.2972C91.9532 99.4898 92.5824 99.2264 93.0463 98.7577C93.5102 98.289 93.7708 97.6533 93.7708 96.9904C93.7697 92.8944 92.5192 88.8983 90.1896 85.5462C87.86 82.1942 84.5645 79.6491 80.7518 78.2576Z" fill="#436FE2"/>
<path fill-rule="evenodd" clip-rule="evenodd" d="M49.315 91C48.8583 91 48.4585 91.3 48.3401 91.7315L43.0351 111.062C42.8629 111.689 43.3461 112.306 44.0101 112.306H51.1317C51.7341 112.306 52.2024 112.818 52.1348 113.404L50.2295 129.899C50.1033 130.992 51.6221 131.438 52.1322 130.458L65.3873 104.995C65.7293 104.338 65.2414 103.559 64.4877 103.559H58.666C57.9502 103.559 57.4618 102.851 57.7302 102.201L61.7998 92.3579C62.0682 91.7087 61.5797 91 60.8639 91H49.315Z" fill="#FFAC33"/>
</svg>
