<svg width="150" height="150" viewBox="0 0 150 150" fill="none" xmlns="http://www.w3.org/2000/svg">
<path d="M66.6666 8.33333C66.6666 8.33333 66.6666 0 75 0C83.3333 0 83.3333 8.33333 83.3333 8.33333V16.6667C83.3333 16.6667 83.3333 25 75 25C66.6666 25 66.6666 16.6667 66.6666 16.6667V8.33333Z" fill="#FFAC33"/>
<path d="M141.667 66.6667C141.667 66.6667 150 66.6667 150 75C150 83.3334 141.667 83.3334 141.667 83.3334H133.333C133.333 83.3334 125 83.3334 125 75C125 66.6667 133.333 66.6667 133.333 66.6667H141.667Z" fill="#FFAC33"/>
<path d="M16.6667 66.6667C16.6667 66.6667 25 66.6667 25 75C25 83.3334 16.6667 83.3334 16.6667 83.3334H8.33333C8.33333 83.3334 0 83.3334 0 75C0 66.6667 8.33333 66.6667 8.33333 66.6667H16.6667Z" fill="#FFAC33"/>
<path d="M38.0042 30.3918C38.0042 30.3918 43.8958 36.2835 38.0042 42.1752C32.1125 48.0668 26.2208 42.1752 26.2208 42.1752L20.325 36.2835C20.325 36.2835 14.4333 30.3918 20.325 24.496C26.2208 18.6043 32.1125 24.496 32.1125 24.496L38.0042 30.3918Z" fill="#FFAC33"/>
<path d="M125.504 117.887C125.504 117.887 131.396 123.779 125.504 129.671C119.612 135.562 113.721 129.671 113.721 129.671L107.829 123.779C107.829 123.779 101.937 117.887 107.829 111.996C113.721 106.104 119.612 111.996 119.612 111.996L125.504 117.887Z" fill="#FFAC33"/>
<path d="M123.783 42.1707C123.783 42.1707 117.892 48.0624 112 42.1707C106.108 36.2791 112 30.3874 112 30.3874L117.892 24.4957C117.892 24.4957 123.783 18.6041 129.675 24.4957C135.567 30.3874 129.675 36.2791 129.675 36.2791L123.783 42.1707Z" fill="#FFAC33"/>
<path d="M36.2833 129.671C36.2833 129.671 30.3917 135.562 24.5 129.671C18.6083 123.779 24.5 117.887 24.5 117.887L30.3917 111.996C30.3917 111.996 36.2833 106.104 42.175 111.996C48.0667 117.887 42.175 123.779 42.175 123.779L36.2833 129.671Z" fill="#FFAC33"/>
<path d="M66.6666 133.333C66.6666 133.333 66.6666 125 75 125C83.3333 125 83.3333 133.333 83.3333 133.333V141.667C83.3333 141.667 83.3333 150 75 150C66.6666 150 66.6666 141.667 66.6666 141.667V133.333Z" fill="#FFAC33"/>
<path d="M116.667 75C116.667 51.9875 98.0084 33.3333 75 33.3333C51.9875 33.3333 33.3334 51.9875 33.3334 75C33.3334 98.0083 51.9875 116.667 75 116.667C98.0084 116.667 116.667 98.0083 116.667 75Z" fill="#FFAC33"/>
</svg>
